<?xml version="1.0" encoding="UTF-8"?>
<svg xmlns="http://www.w3.org/2000/svg" xmlns:xlink="http://www.w3.org/1999/xlink"
     width="10000" height="10000" viewBox="0 0 10000 10000">
<defs>
</defs>
<path d="M246.4213562373095,105.00000000000001 L125.71067811865476,55.000000000000014" stroke="red" />
<path d="M125.71067811865476,55.00000000000001 L139.45196105604367,44.455942752686646" stroke="red" />
<path d="M139.45196105604396,44.455942752686624 L87.23669471662191,22.827671271974808" stroke="red" />
<path d="M87.2366947166222,22.827671271974808 L91.75825464949469,57.172328728025256" stroke="red" />
<path d="M91.75825464949469,57.172328728025235 L39.54298831007293,35.54405724731342" stroke="red" />
<path d="M39.54298831007293,35.5440572473134 L53.284271247461845,25.000000000000036" stroke="red" />
<path d="M53.28427124746199,25.000000000000018 L5.0,5.0000000000000355" stroke="red" />
<path d="M5.000000000000142,5.0 L326.4213562373095,5.0000000000000355" stroke="red" />
<path d="M226.4213562373095,105.00000000000001 L276.4213562373095,55.000000000000014" stroke="red" />
<path d="M276.4213562373095,55.000000000000014 L280.90423359814963,71.73032607475618" stroke="red" />
<path d="M280.9042335981499,71.73032607475616 L308.15168231206553,44.48287736084028" stroke="red" />
<path d="M308.1516823120657,44.48287736084027 L274.6910301625533,35.51712263915975" stroke="red" />
<path d="M274.6910301625533,35.51712263915974 L301.9384788764691,8.269673925243861" stroke="red" />
<path d="M301.9384788764694,8.269673925243843 L306.4213562373095,25.00000000000003" stroke="red" />
<path d="M306.4213562373095,25.0 L326.4213562373095,5.0000000000000355" stroke="red" />
<path d="M5,107.7525512860841 L125.71067811865473,157.7525512860841" stroke="red" />
<path d="M125.71067811865473,157.7525512860841 L111.96939518126571,168.2966085333975" stroke="red" />
<path d="M111.96939518126571,168.2966085333975 L164.18466152068743,189.92488001410933" stroke="red" />
<path d="M164.18466152068743,189.92488001410933 L159.66310158781482,155.5802225580589" stroke="red" />
<path d="M159.66310158781482,155.5802225580589 L211.87836792723655,177.2084940387707" stroke="red" />
<path d="M211.87836792723655,177.2084940387707 L198.13708498984755,187.7525512860841" stroke="red" />
<path d="M198.13708498984755,187.7525512860841 L246.42135623730945,207.7525512860841" stroke="red" />
<path d="M246.42135623730945,207.7525512860841 L-75.00000000000001,207.7525512860841" stroke="red" />
<path d="M25.0,107.7525512860841 L-24.999999999999993,157.7525512860841" stroke="red" />
<path d="M-24.999999999999993,157.7525512860841 L-29.482877360840256,141.02222521132796" stroke="red" />
<path d="M-29.482877360840256,141.02222521132796 L-56.730326074756135,168.26967392524384" stroke="red" />
<path d="M-56.730326074756135,168.26967392524384 L-23.269673925243826,177.23542864692436" stroke="red" />
<path d="M-23.269673925243826,177.23542864692436 L-50.51712263915971,204.48287736084026" stroke="red" />
<path d="M-50.51712263915971,204.48287736084026 L-54.99999999999997,187.7525512860841" stroke="red" />
<path d="M-54.99999999999997,187.7525512860841 L-74.99999999999997,207.7525512860841" stroke="red" />
<path d="M105.0,307.75255128608416 L55.0,257.75255128608416" stroke="red" />
<path d="M55.0,257.7525512860841 L71.73032607475619,253.26967392524386" stroke="red" />
<path d="M71.73032607475619,253.26967392524384 L44.48287736084012,226.02222521132796" stroke="red" />
<path d="M44.482877360840405,226.02222521132796 L35.517122639159595,259.4828773608403" stroke="red" />
<path d="M35.51712263915988,259.48287736084023 L8.269673925243808,232.2354286469244" stroke="red" />
<path d="M8.269673925243808,232.23542864692436 L25.0,227.75255128608416" stroke="red" />
<path d="M25.0,227.7525512860841 L5.0,207.75255128608416" stroke="red" />
<path d="M5.0,207.7525512860841 L326.4213562373095,207.75255128608416" stroke="red" />
<path d="M85.0,307.75255128608416 L205.7106781186546,257.75255128608416" stroke="red" />
<path d="M205.71067811865476,257.75255128608416 L203.44989815221822,274.92488001410936" stroke="red" />
<path d="M203.4498981522185,274.92488001410936 L255.66516449163998,253.2966085333975" stroke="red" />
<path d="M255.66516449164027,253.2966085333975 L228.18259861686215,232.20849403877077" stroke="red" />
<path d="M228.18259861686215,232.2084940387707 L280.3978649562838,210.58022255805892" stroke="red" />
<path d="M280.397864956284,210.5802225580589 L278.1370849898474,227.75255128608416" stroke="red" />
<path d="M278.13708498984766,227.75255128608407 L326.4213562373092,207.75255128608416" stroke="red" />
<path d="M5,310.5051025721682 L55.0,360.5051025721682" stroke="red" />
<path d="M55.0,360.5051025721682 L38.26967392524384,364.9879799330085" stroke="red" />
<path d="M38.26967392524384,364.9879799330085 L65.51712263915974,392.23542864692433" stroke="red" />
<path d="M65.51712263915974,392.23542864692433 L74.48287736084028,358.77477649741206" stroke="red" />
<path d="M74.48287736084028,358.77477649741206 L101.73032607475616,386.02222521132796" stroke="red" />
<path d="M101.73032607475616,386.02222521132796 L85.0,390.5051025721682" stroke="red" />
<path d="M85.0,390.5051025721682 L105.0,410.5051025721682" stroke="red" />
<path d="M105.00000000000001,410.5051025721682 L-216.42135623730945,410.5051025721682" stroke="red" />
<path d="M25.0,310.5051025721682 L-95.7106781186547,360.5051025721682" stroke="red" />
<path d="M-95.7106781186547,360.5051025721682 L-93.44989815221838,343.33277384414305" stroke="red" />
<path d="M-93.44989815221838,343.33277384414305 L-145.6651644916401,364.9610453248548" stroke="red" />
<path d="M-145.6651644916401,364.9610453248548 L-118.18259861686212,386.0491598194816" stroke="red" />
<path d="M-118.18259861686212,386.0491598194816 L-170.39786495628385,407.6774313001934" stroke="red" />
<path d="M-170.39786495628385,407.6774313001934 L-168.13708498984752,390.5051025721682" stroke="red" />
<path d="M-168.13708498984752,390.5051025721682 L-216.4213562373094,410.5051025721682" stroke="red" />
<path d="M246.4213562373095,510.5051025721682 L125.71067811865476,460.5051025721682" stroke="red" />
<path d="M125.71067811865476,460.5051025721682 L139.45196105604367,449.9610453248549" stroke="red" />
<path d="M139.45196105604396,449.9610453248548 L87.23669471662191,428.33277384414305" stroke="red" />
<path d="M87.2366947166222,428.33277384414305 L91.75825464949469,462.67743130019346" stroke="red" />
<path d="M91.75825464949469,462.67743130019346 L39.54298831007293,441.0491598194816" stroke="red" />
<path d="M39.54298831007293,441.0491598194816 L53.284271247461845,430.5051025721683" stroke="red" />
<path d="M53.28427124746199,430.5051025721682 L5.0,410.5051025721683" stroke="red" />
<path d="M5.000000000000142,410.5051025721682 L326.4213562373095,410.5051025721683" stroke="red" />
<path d="M226.4213562373095,510.5051025721682 L276.4213562373095,460.5051025721682" stroke="red" />
<path d="M276.4213562373095,460.5051025721682 L280.90423359814963,477.2354286469244" stroke="red" />
<path d="M280.9042335981499,477.2354286469244 L308.15168231206553,449.9879799330085" stroke="red" />
<path d="M308.1516823120657,449.9879799330085 L274.6910301625533,441.02222521132796" stroke="red" />
<path d="M274.6910301625533,441.02222521132796 L301.9384788764691,413.77477649741206" stroke="red" />
<path d="M301.9384788764694,413.77477649741206 L306.4213562373095,430.5051025721682" stroke="red" />
<path d="M306.4213562373095,430.5051025721682 L326.4213562373095,410.5051025721683" stroke="red" />
<path d="M5,513.2576538582523 L55.0,563.2576538582523" stroke="red" />
<path d="M55.0,563.2576538582523 L38.26967392524384,567.7405312190926" stroke="red" />
<path d="M38.26967392524384,567.7405312190926 L65.51712263915974,594.9879799330085" stroke="red" />
<path d="M65.51712263915974,594.9879799330085 L74.48287736084028,561.5273277834962" stroke="red" />
<path d="M74.48287736084028,561.5273277834962 L101.73032607475616,588.7747764974121" stroke="red" />
<path d="M101.73032607475616,588.7747764974121 L85.0,593.2576538582523" stroke="red" />
<path d="M85.0,593.2576538582523 L105.0,613.2576538582523" stroke="red" />
<path d="M105.00000000000001,613.2576538582523 L-216.42135623730945,613.2576538582523" stroke="red" />
<path d="M25.0,513.2576538582523 L-95.7106781186547,563.2576538582523" stroke="red" />
<path d="M-95.7106781186547,563.2576538582523 L-93.44989815221838,546.0853251302271" stroke="red" />
<path d="M-93.44989815221838,546.0853251302271 L-145.6651644916401,567.713596610939" stroke="red" />
<path d="M-145.6651644916401,567.713596610939 L-118.18259861686212,588.8017111055658" stroke="red" />
<path d="M-118.18259861686212,588.8017111055658 L-170.39786495628385,610.4299825862777" stroke="red" />
<path d="M-170.39786495628385,610.4299825862777 L-168.13708498984752,593.2576538582523" stroke="red" />
<path d="M-168.13708498984752,593.2576538582523 L-216.4213562373094,613.2576538582523" stroke="red" />
<path d="M105.0,713.2576538582523 L55.0,663.2576538582523" stroke="red" />
<path d="M55.0,663.2576538582523 L71.73032607475619,658.7747764974121" stroke="red" />
<path d="M71.73032607475619,658.7747764974121 L44.48287736084012,631.5273277834963" stroke="red" />
<path d="M44.482877360840405,631.5273277834963 L35.517122639159595,664.9879799330085" stroke="red" />
<path d="M35.51712263915988,664.9879799330085 L8.269673925243808,637.7405312190926" stroke="red" />
<path d="M8.269673925243808,637.7405312190926 L25.0,633.2576538582523" stroke="red" />
<path d="M25.0,633.2576538582523 L5.0,613.2576538582523" stroke="red" />
<path d="M5.0,613.2576538582523 L326.4213562373095,613.2576538582523" stroke="red" />
<path d="M85.0,713.2576538582523 L205.7106781186546,663.2576538582523" stroke="red" />
<path d="M205.71067811865476,663.2576538582523 L203.44989815221822,680.4299825862777" stroke="red" />
<path d="M203.4498981522185,680.4299825862777 L255.66516449163998,658.8017111055658" stroke="red" />
<path d="M255.66516449164027,658.8017111055658 L228.18259861686215,637.713596610939" stroke="red" />
<path d="M228.18259861686215,637.713596610939 L280.3978649562838,616.0853251302271" stroke="red" />
<path d="M280.397864956284,616.0853251302271 L278.1370849898474,633.2576538582523" stroke="red" />
<path d="M278.13708498984766,633.2576538582523 L326.4213562373092,613.2576538582523" stroke="red" />
<path d="M5,716.0102051443364 L55.0,766.0102051443364" stroke="red" />
<path d="M55.0,766.0102051443364 L38.26967392524384,770.4930825051767" stroke="red" />
<path d="M38.26967392524384,770.4930825051767 L65.51712263915974,797.7405312190926" stroke="red" />
<path d="M65.51712263915974,797.7405312190926 L74.48287736084028,764.2798790695803" stroke="red" />
<path d="M74.48287736084028,764.2798790695803 L101.73032607475616,791.5273277834962" stroke="red" />
<path d="M101.73032607475616,791.5273277834962 L85.0,796.0102051443364" stroke="red" />
<path d="M85.0,796.0102051443364 L105.0,816.0102051443364" stroke="red" />
<path d="M105.00000000000001,816.0102051443364 L-216.42135623730945,816.0102051443364" stroke="red" />
<path d="M25.0,716.0102051443364 L-95.7106781186547,766.0102051443364" stroke="red" />
<path d="M-95.7106781186547,766.0102051443364 L-93.44989815221838,748.8378764163111" stroke="red" />
<path d="M-93.44989815221838,748.8378764163111 L-145.6651644916401,770.466147897023" stroke="red" />
<path d="M-145.6651644916401,770.466147897023 L-118.18259861686212,791.5542623916498" stroke="red" />
<path d="M-118.18259861686212,791.5542623916498 L-170.39786495628385,813.1825338723617" stroke="red" />
<path d="M-170.39786495628385,813.1825338723617 L-168.13708498984752,796.0102051443364" stroke="red" />
<path d="M-168.13708498984752,796.0102051443364 L-216.4213562373094,816.0102051443364" stroke="red" />
<path d="M246.4213562373095,916.0102051443364 L125.71067811865476,866.0102051443364" stroke="red" />
<path d="M125.71067811865476,866.0102051443364 L139.45196105604367,855.466147897023" stroke="red" />
<path d="M139.45196105604396,855.466147897023 L87.23669471662191,833.8378764163112" stroke="red" />
<path d="M87.2366947166222,833.8378764163112 L91.75825464949469,868.1825338723617" stroke="red" />
<path d="M91.75825464949469,868.1825338723617 L39.54298831007293,846.5542623916498" stroke="red" />
<path d="M39.54298831007293,846.5542623916498 L53.284271247461845,836.0102051443364" stroke="red" />
<path d="M53.28427124746199,836.0102051443364 L5.0,816.0102051443364" stroke="red" />
<path d="M5.000000000000142,816.0102051443364 L326.4213562373095,816.0102051443364" stroke="red" />
<path d="M226.4213562373095,916.0102051443364 L276.4213562373095,866.0102051443364" stroke="red" />
<path d="M276.4213562373095,866.0102051443364 L280.90423359814963,882.7405312190926" stroke="red" />
<path d="M280.9042335981499,882.7405312190926 L308.15168231206553,855.4930825051767" stroke="red" />
<path d="M308.1516823120657,855.4930825051767 L274.6910301625533,846.5273277834962" stroke="red" />
<path d="M274.6910301625533,846.5273277834962 L301.9384788764691,819.2798790695803" stroke="red" />
<path d="M301.9384788764694,819.2798790695803 L306.4213562373095,836.0102051443364" stroke="red" />
<path d="M306.4213562373095,836.0102051443364 L326.4213562373095,816.0102051443364" stroke="red" />
<path d="M5,918.7627564304205 L55.0,968.7627564304205" stroke="red" />
<path d="M55.0,968.7627564304205 L38.26967392524384,973.2456337912607" stroke="red" />
<path d="M38.26967392524384,973.2456337912607 L65.51712263915974,1000.4930825051767" stroke="red" />
<path d="M65.51712263915974,1000.4930825051767 L74.48287736084028,967.0324303556642" stroke="red" />
<path d="M74.48287736084028,967.0324303556642 L101.73032607475616,994.2798790695803" stroke="red" />
<path d="M101.73032607475616,994.2798790695803 L85.0,998.7627564304205" stroke="red" />
<path d="M85.0,998.7627564304205 L105.0,1018.7627564304205" stroke="red" />
<path d="M105.00000000000001,1018.7627564304205 L-216.42135623730945,1018.7627564304205" stroke="red" />
<path d="M25.0,918.7627564304205 L-95.7106781186547,968.7627564304205" stroke="red" />
<path d="M-95.7106781186547,968.7627564304205 L-93.44989815221838,951.5904277023952" stroke="red" />
<path d="M-93.44989815221838,951.5904277023952 L-145.6651644916401,973.2186991831071" stroke="red" />
<path d="M-145.6651644916401,973.2186991831071 L-118.18259861686212,994.3068136777339" stroke="red" />
<path d="M-118.18259861686212,994.3068136777339 L-170.39786495628385,1015.9350851584458" stroke="red" />
<path d="M-170.39786495628385,1015.9350851584458 L-168.13708498984752,998.7627564304205" stroke="red" />
<path d="M-168.13708498984752,998.7627564304205 L-216.4213562373094,1018.7627564304205" stroke="red" />
<path d="M246.4213562373095,1118.7627564304205 L125.71067811865476,1068.7627564304205" stroke="red" />
<path d="M125.71067811865476,1068.7627564304205 L139.45196105604367,1058.2186991831072" stroke="red" />
<path d="M139.45196105604396,1058.2186991831072 L87.23669471662191,1036.5904277023951" stroke="red" />
<path d="M87.2366947166222,1036.5904277023951 L91.75825464949469,1070.9350851584459" stroke="red" />
<path d="M91.75825464949469,1070.9350851584459 L39.54298831007293,1049.3068136777338" stroke="red" />
<path d="M39.54298831007293,1049.3068136777338 L53.284271247461845,1038.7627564304205" stroke="red" />
<path d="M53.28427124746199,1038.7627564304205 L5.0,1018.7627564304205" stroke="red" />
<path d="M5.000000000000142,1018.7627564304205 L326.4213562373095,1018.7627564304205" stroke="red" />
<path d="M226.4213562373095,1118.7627564304205 L276.4213562373095,1068.7627564304205" stroke="red" />
<path d="M276.4213562373095,1068.7627564304205 L280.90423359814963,1085.4930825051767" stroke="red" />
<path d="M280.9042335981499,1085.4930825051767 L308.15168231206553,1058.2456337912608" stroke="red" />
<path d="M308.1516823120657,1058.2456337912608 L274.6910301625533,1049.2798790695801" stroke="red" />
<path d="M274.6910301625533,1049.2798790695801 L301.9384788764691,1022.0324303556642" stroke="red" />
<path d="M301.9384788764694,1022.0324303556642 L306.4213562373095,1038.7627564304205" stroke="red" />
<path d="M306.4213562373095,1038.7627564304205 L326.4213562373095,1018.7627564304205" stroke="red" />
<path d="M5,1121.5153077165046 L125.71067811865473,1171.5153077165046" stroke="red" />
<path d="M125.71067811865473,1171.5153077165046 L111.96939518126571,1182.0593649638179" stroke="red" />
<path d="M111.96939518126571,1182.0593649638179 L164.18466152068743,1203.6876364445297" stroke="red" />
<path d="M164.18466152068743,1203.6876364445297 L159.66310158781482,1169.3429789884792" stroke="red" />
<path d="M159.66310158781482,1169.3429789884792 L211.87836792723655,1190.971250469191" stroke="red" />
<path d="M211.87836792723655,1190.971250469191 L198.13708498984755,1201.5153077165046" stroke="red" />
<path d="M198.13708498984755,1201.5153077165046 L246.42135623730945,1221.5153077165046" stroke="red" />
<path d="M246.42135623730945,1221.5153077165046 L-75.00000000000001,1221.5153077165046" stroke="red" />
<path d="M25.0,1121.5153077165046 L-24.999999999999993,1171.5153077165046" stroke="red" />
<path d="M-24.999999999999993,1171.5153077165046 L-29.482877360840256,1154.7849816417483" stroke="red" />
<path d="M-29.482877360840256,1154.7849816417483 L-56.730326074756135,1182.0324303556642" stroke="red" />
<path d="M-56.730326074756135,1182.0324303556642 L-23.269673925243826,1190.9981850773447" stroke="red" />
<path d="M-23.269673925243826,1190.9981850773447 L-50.51712263915971,1218.2456337912608" stroke="red" />
<path d="M-50.51712263915971,1218.2456337912608 L-54.99999999999997,1201.5153077165046" stroke="red" />
<path d="M-54.99999999999997,1201.5153077165046 L-74.99999999999997,1221.5153077165046" stroke="red" />
<path d="M105.0,1321.5153077165046 L55.0,1271.5153077165046" stroke="red" />
<path d="M55.0,1271.5153077165046 L71.73032607475619,1267.0324303556642" stroke="red" />
<path d="M71.73032607475619,1267.0324303556642 L44.48287736084012,1239.7849816417483" stroke="red" />
<path d="M44.482877360840405,1239.7849816417483 L35.517122639159595,1273.2456337912608" stroke="red" />
<path d="M35.51712263915988,1273.2456337912608 L8.269673925243808,1245.9981850773447" stroke="red" />
<path d="M8.269673925243808,1245.9981850773447 L25.0,1241.5153077165046" stroke="red" />
<path d="M25.0,1241.5153077165046 L5.0,1221.5153077165046" stroke="red" />
<path d="M5.0,1221.5153077165046 L326.4213562373095,1221.5153077165046" stroke="red" />
<path d="M85.0,1321.5153077165046 L205.7106781186546,1271.5153077165046" stroke="red" />
<path d="M205.71067811865476,1271.5153077165046 L203.44989815221822,1288.6876364445297" stroke="red" />
<path d="M203.4498981522185,1288.6876364445297 L255.66516449163998,1267.0593649638179" stroke="red" />
<path d="M255.66516449164027,1267.0593649638179 L228.18259861686215,1245.971250469191" stroke="red" />
<path d="M228.18259861686215,1245.971250469191 L280.3978649562838,1224.3429789884794" stroke="red" />
<path d="M280.397864956284,1224.3429789884792 L278.1370849898474,1241.5153077165046" stroke="red" />
<path d="M278.13708498984766,1241.5153077165046 L326.4213562373092,1221.5153077165046" stroke="red" />
<path d="M5,1324.267859002589 L125.71067811865473,1374.267859002589" stroke="red" />
<path d="M125.71067811865473,1374.267859002589 L111.96939518126571,1384.8119162499024" stroke="red" />
<path d="M111.96939518126571,1384.8119162499024 L164.18466152068743,1406.440187730614" stroke="red" />
<path d="M164.18466152068743,1406.440187730614 L159.66310158781482,1372.0955302745638" stroke="red" />
<path d="M159.66310158781482,1372.0955302745638 L211.87836792723655,1393.7238017552754" stroke="red" />
<path d="M211.87836792723655,1393.7238017552754 L198.13708498984755,1404.267859002589" stroke="red" />
<path d="M198.13708498984755,1404.267859002589 L246.42135623730945,1424.267859002589" stroke="red" />
<path d="M246.42135623730945,1424.267859002589 L-75.00000000000001,1424.267859002589" stroke="red" />
<path d="M25.0,1324.267859002589 L-24.999999999999993,1374.267859002589" stroke="red" />
<path d="M-24.999999999999993,1374.267859002589 L-29.482877360840256,1357.5375329278327" stroke="red" />
<path d="M-29.482877360840256,1357.5375329278327 L-56.730326074756135,1384.7849816417488" stroke="red" />
<path d="M-56.730326074756135,1384.7849816417488 L-23.269673925243826,1393.7507363634293" stroke="red" />
<path d="M-23.269673925243826,1393.7507363634293 L-50.51712263915971,1420.9981850773452" stroke="red" />
<path d="M-50.51712263915971,1420.9981850773452 L-54.99999999999997,1404.267859002589" stroke="red" />
<path d="M-54.99999999999997,1404.267859002589 L-74.99999999999997,1424.267859002589" stroke="red" />
<path d="M105.0,1524.267859002589 L55.0,1474.267859002589" stroke="red" />
<path d="M55.0,1474.267859002589 L71.73032607475619,1469.7849816417488" stroke="red" />
<path d="M71.73032607475619,1469.7849816417488 L44.48287736084012,1442.5375329278327" stroke="red" />
<path d="M44.482877360840405,1442.5375329278327 L35.517122639159595,1475.9981850773452" stroke="red" />
<path d="M35.51712263915988,1475.9981850773452 L8.269673925243808,1448.7507363634293" stroke="red" />
<path d="M8.269673925243808,1448.7507363634293 L25.0,1444.267859002589" stroke="red" />
<path d="M25.0,1444.267859002589 L5.0,1424.267859002589" stroke="red" />
<path d="M5.0,1424.267859002589 L326.4213562373095,1424.267859002589" stroke="red" />
<path d="M85.0,1524.267859002589 L205.7106781186546,1474.267859002589" stroke="red" />
<path d="M205.71067811865476,1474.267859002589 L203.44989815221822,1491.440187730614" stroke="red" />
<path d="M203.4498981522185,1491.440187730614 L255.66516449163998,1469.8119162499024" stroke="red" />
<path d="M255.66516449164027,1469.8119162499024 L228.18259861686215,1448.7238017552754" stroke="red" />
<path d="M228.18259861686215,1448.7238017552754 L280.3978649562838,1427.0955302745638" stroke="red" />
<path d="M280.397864956284,1427.0955302745638 L278.1370849898474,1444.267859002589" stroke="red" />
<path d="M278.13708498984766,1444.267859002589 L326.4213562373092,1424.267859002589" stroke="red" />
<path d="M5,1527.0204102886732 L125.71067811865473,1577.0204102886732" stroke="red" />
<path d="M125.71067811865473,1577.0204102886732 L111.96939518126571,1587.5644675359865" stroke="red" />
<path d="M111.96939518126571,1587.5644675359865 L164.18466152068743,1609.1927390166984" stroke="red" />
<path d="M164.18466152068743,1609.1927390166984 L159.66310158781482,1574.8480815606479" stroke="red" />
<path d="M159.66310158781482,1574.8480815606479 L211.87836792723655,1596.4763530413597" stroke="red" />
<path d="M211.87836792723655,1596.4763530413597 L198.13708498984755,1607.0204102886732" stroke="red" />
<path d="M198.13708498984755,1607.0204102886732 L246.42135623730945,1627.0204102886732" stroke="red" />
<path d="M246.42135623730945,1627.0204102886732 L-75.00000000000001,1627.0204102886732" stroke="red" />
<path d="M25.0,1527.0204102886732 L-24.999999999999993,1577.0204102886732" stroke="red" />
<path d="M-24.999999999999993,1577.0204102886732 L-29.482877360840256,1560.290084213917" stroke="red" />
<path d="M-29.482877360840256,1560.290084213917 L-56.730326074756135,1587.5375329278331" stroke="red" />
<path d="M-56.730326074756135,1587.5375329278331 L-23.269673925243826,1596.5032876495136" stroke="red" />
<path d="M-23.269673925243826,1596.5032876495136 L-50.51712263915971,1623.7507363634293" stroke="red" />
<path d="M-50.51712263915971,1623.7507363634293 L-54.99999999999997,1607.0204102886732" stroke="red" />
<path d="M-54.99999999999997,1607.0204102886732 L-74.99999999999997,1627.0204102886732" stroke="red" />
<path d="M246.4213562373095,1727.0204102886732 L125.71067811865476,1677.0204102886732" stroke="red" />
<path d="M125.71067811865476,1677.0204102886732 L139.45196105604367,1666.4763530413597" stroke="red" />
<path d="M139.45196105604396,1666.4763530413597 L87.23669471662191,1644.8480815606479" stroke="red" />
<path d="M87.2366947166222,1644.8480815606479 L91.75825464949469,1679.1927390166984" stroke="red" />
<path d="M91.75825464949469,1679.1927390166984 L39.54298831007293,1657.5644675359865" stroke="red" />
<path d="M39.54298831007293,1657.5644675359865 L53.284271247461845,1647.0204102886732" stroke="red" />
<path d="M53.28427124746199,1647.0204102886732 L5.0,1627.0204102886732" stroke="red" />
<path d="M5.000000000000142,1627.0204102886732 L326.4213562373095,1627.0204102886732" stroke="red" />
<path d="M226.4213562373095,1727.0204102886732 L276.4213562373095,1677.0204102886732" stroke="red" />
<path d="M276.4213562373095,1677.0204102886732 L280.90423359814963,1693.7507363634293" stroke="red" />
<path d="M280.9042335981499,1693.7507363634293 L308.15168231206553,1666.5032876495136" stroke="red" />
<path d="M308.1516823120657,1666.5032876495136 L274.6910301625533,1657.5375329278331" stroke="red" />
<path d="M274.6910301625533,1657.5375329278331 L301.9384788764691,1630.290084213917" stroke="red" />
<path d="M301.9384788764694,1630.290084213917 L306.4213562373095,1647.0204102886732" stroke="red" />
<path d="M306.4213562373095,1647.0204102886732 L326.4213562373095,1627.0204102886732" stroke="red" />
<path d="M5,1729.7729615747573 L125.71067811865473,1779.7729615747573" stroke="red" />
<path d="M125.71067811865473,1779.7729615747573 L111.96939518126571,1790.3170188220706" stroke="red" />
<path d="M111.96939518126571,1790.3170188220706 L164.18466152068743,1811.9452903027827" stroke="red" />
<path d="M164.18466152068743,1811.9452903027827 L159.66310158781482,1777.600632846732" stroke="red" />
<path d="M159.66310158781482,1777.600632846732 L211.87836792723655,1799.228904327444" stroke="red" />
<path d="M211.87836792723655,1799.228904327444 L198.13708498984755,1809.7729615747573" stroke="red" />
<path d="M198.13708498984755,1809.7729615747573 L246.42135623730945,1829.7729615747573" stroke="red" />
<path d="M246.42135623730945,1829.7729615747573 L-75.00000000000001,1829.7729615747573" stroke="red" />
<path d="M25.0,1729.7729615747573 L-24.999999999999993,1779.7729615747573" stroke="red" />
<path d="M-24.999999999999993,1779.7729615747573 L-29.482877360840256,1763.042635500001" stroke="red" />
<path d="M-29.482877360840256,1763.042635500001 L-56.730326074756135,1790.2900842139172" stroke="red" />
<path d="M-56.730326074756135,1790.2900842139172 L-23.269673925243826,1799.2558389355977" stroke="red" />
<path d="M-23.269673925243826,1799.2558389355977 L-50.51712263915971,1826.5032876495136" stroke="red" />
<path d="M-50.51712263915971,1826.5032876495136 L-54.99999999999997,1809.7729615747573" stroke="red" />
<path d="M-54.99999999999997,1809.7729615747573 L-74.99999999999997,1829.7729615747573" stroke="red" />
<path d="M105.0,1929.7729615747573 L55.0,1879.7729615747573" stroke="red" />
<path d="M55.0,1879.7729615747573 L71.73032607475619,1875.2900842139172" stroke="red" />
<path d="M71.73032607475619,1875.2900842139172 L44.48287736084012,1848.042635500001" stroke="red" />
<path d="M44.482877360840405,1848.042635500001 L35.517122639159595,1881.5032876495136" stroke="red" />
<path d="M35.51712263915988,1881.5032876495136 L8.269673925243808,1854.2558389355977" stroke="red" />
<path d="M8.269673925243808,1854.2558389355977 L25.0,1849.7729615747573" stroke="red" />
<path d="M25.0,1849.7729615747573 L5.0,1829.7729615747573" stroke="red" />
<path d="M5.0,1829.7729615747573 L326.4213562373095,1829.7729615747573" stroke="red" />
<path d="M85.0,1929.7729615747573 L205.7106781186546,1879.7729615747573" stroke="red" />
<path d="M205.71067811865476,1879.7729615747573 L203.44989815221822,1896.9452903027827" stroke="red" />
<path d="M203.4498981522185,1896.9452903027827 L255.66516449163998,1875.3170188220706" stroke="red" />
<path d="M255.66516449164027,1875.3170188220706 L228.18259861686215,1854.228904327444" stroke="red" />
<path d="M228.18259861686215,1854.228904327444 L280.3978649562838,1832.600632846732" stroke="red" />
<path d="M280.397864956284,1832.600632846732 L278.1370849898474,1849.7729615747573" stroke="red" />
<path d="M278.13708498984766,1849.7729615747573 L326.4213562373092,1829.7729615747573" stroke="red" />
<path d="M5,1932.5255128608414 L55.0,1982.5255128608414" stroke="red" />
<path d="M55.0,1982.5255128608414 L38.26967392524384,1987.008390221682" stroke="red" />
<path d="M38.26967392524384,1987.008390221682 L65.51712263915974,2014.2558389355977" stroke="red" />
<path d="M65.51712263915974,2014.2558389355977 L74.48287736084028,1980.7951867860854" stroke="red" />
<path d="M74.48287736084028,1980.7951867860854 L101.73032607475616,2008.0426355000013" stroke="red" />
<path d="M101.73032607475616,2008.0426355000013 L85.0,2012.5255128608414" stroke="red" />
<path d="M85.0,2012.5255128608414 L105.0,2032.5255128608414" stroke="red" />
<path d="M105.00000000000001,2032.5255128608414 L-216.42135623730945,2032.5255128608414" stroke="red" />
<path d="M25.0,1932.5255128608414 L-95.7106781186547,1982.5255128608414" stroke="red" />
<path d="M-95.7106781186547,1982.5255128608414 L-93.44989815221838,1965.3531841328163" stroke="red" />
<path d="M-93.44989815221838,1965.3531841328163 L-145.6651644916401,1986.9814556135282" stroke="red" />
<path d="M-145.6651644916401,1986.9814556135282 L-118.18259861686212,2008.069570108155" stroke="red" />
<path d="M-118.18259861686212,2008.069570108155 L-170.39786495628385,2029.6978415888668" stroke="red" />
<path d="M-170.39786495628385,2029.6978415888668 L-168.13708498984752,2012.5255128608414" stroke="red" />
<path d="M-168.13708498984752,2012.5255128608414 L-216.4213562373094,2032.5255128608414" stroke="red" />
<path d="M105.0,2132.5255128608414 L55.0,2082.5255128608414" stroke="red" />
<path d="M55.0,2082.5255128608414 L71.73032607475619,2078.0426355000013" stroke="red" />
<path d="M71.73032607475619,2078.0426355000013 L44.48287736084012,2050.7951867860857" stroke="red" />
<path d="M44.482877360840405,2050.7951867860857 L35.517122639159595,2084.2558389355977" stroke="red" />
<path d="M35.51712263915988,2084.2558389355977 L8.269673925243808,2057.008390221682" stroke="red" />
<path d="M8.269673925243808,2057.008390221682 L25.0,2052.5255128608414" stroke="red" />
<path d="M25.0,2052.5255128608414 L5.0,2032.5255128608414" stroke="red" />
<path d="M5.0,2032.5255128608414 L326.4213562373095,2032.5255128608414" stroke="red" />
<path d="M85.0,2132.5255128608414 L205.7106781186546,2082.5255128608414" stroke="red" />
<path d="M205.71067811865476,2082.5255128608414 L203.44989815221822,2099.697841588867" stroke="red" />
<path d="M203.4498981522185,2099.697841588867 L255.66516449163998,2078.069570108155" stroke="red" />
<path d="M255.66516449164027,2078.069570108155 L228.18259861686215,2056.981455613528" stroke="red" />
<path d="M228.18259861686215,2056.981455613528 L280.3978649562838,2035.3531841328163" stroke="red" />
<path d="M280.397864956284,2035.3531841328163 L278.1370849898474,2052.5255128608414" stroke="red" />
<path d="M278.13708498984766,2052.5255128608414 L326.4213562373092,2032.5255128608414" stroke="red" />
<path d="M5,2135.2780641469258 L55.0,2185.2780641469258" stroke="red" />
<path d="M55.0,2185.2780641469258 L38.26967392524384,2189.7609415077663" stroke="red" />
<path d="M38.26967392524384,2189.7609415077663 L65.51712263915974,2217.008390221682" stroke="red" />
<path d="M65.51712263915974,2217.008390221682 L74.48287736084028,2183.5477380721695" stroke="red" />
<path d="M74.48287736084028,2183.5477380721695 L101.73032607475616,2210.7951867860857" stroke="red" />
<path d="M101.73032607475616,2210.7951867860857 L85.0,2215.2780641469258" stroke="red" />
<path d="M85.0,2215.2780641469258 L105.0,2235.2780641469258" stroke="red" />
<path d="M105.00000000000001,2235.2780641469258 L-216.42135623730945,2235.2780641469258" stroke="red" />
<path d="M25.0,2135.2780641469258 L-95.7106781186547,2185.2780641469258" stroke="red" />
<path d="M-95.7106781186547,2185.2780641469258 L-93.44989815221838,2168.1057354189006" stroke="red" />
<path d="M-93.44989815221838,2168.1057354189006 L-145.6651644916401,2189.7340068996123" stroke="red" />
<path d="M-145.6651644916401,2189.7340068996123 L-118.18259861686212,2210.8221213942393" stroke="red" />
<path d="M-118.18259861686212,2210.8221213942393 L-170.39786495628385,2232.450392874951" stroke="red" />
<path d="M-170.39786495628385,2232.450392874951 L-168.13708498984752,2215.2780641469258" stroke="red" />
<path d="M-168.13708498984752,2215.2780641469258 L-216.4213562373094,2235.2780641469258" stroke="red" />
<path d="M246.4213562373095,2335.2780641469258 L125.71067811865476,2285.2780641469258" stroke="red" />
<path d="M125.71067811865476,2285.2780641469258 L139.45196105604367,2274.7340068996123" stroke="red" />
<path d="M139.45196105604396,2274.7340068996123 L87.23669471662191,2253.1057354189006" stroke="red" />
<path d="M87.2366947166222,2253.1057354189006 L91.75825464949469,2287.450392874951" stroke="red" />
<path d="M91.75825464949469,2287.450392874951 L39.54298831007293,2265.8221213942393" stroke="red" />
<path d="M39.54298831007293,2265.8221213942393 L53.284271247461845,2255.2780641469258" stroke="red" />
<path d="M53.28427124746199,2255.2780641469258 L5.0,2235.2780641469258" stroke="red" />
<path d="M5.000000000000142,2235.2780641469258 L326.4213562373095,2235.2780641469258" stroke="red" />
<path d="M226.4213562373095,2335.2780641469258 L276.4213562373095,2285.2780641469258" stroke="red" />
<path d="M276.4213562373095,2285.2780641469258 L280.90423359814963,2302.008390221682" stroke="red" />
<path d="M280.9042335981499,2302.008390221682 L308.15168231206553,2274.7609415077663" stroke="red" />
<path d="M308.1516823120657,2274.7609415077663 L274.6910301625533,2265.7951867860857" stroke="red" />
<path d="M274.6910301625533,2265.7951867860857 L301.9384788764691,2238.5477380721695" stroke="red" />
<path d="M301.9384788764694,2238.5477380721695 L306.4213562373095,2255.2780641469258" stroke="red" />
<path d="M306.4213562373095,2255.2780641469258 L326.4213562373095,2235.2780641469258" stroke="red" />
<path d="M5,2338.03061543301 L125.71067811865473,2388.03061543301" stroke="red" />
<path d="M125.71067811865473,2388.03061543301 L111.96939518126571,2398.5746726803236" stroke="red" />
<path d="M111.96939518126571,2398.5746726803236 L164.18466152068743,2420.2029441610352" stroke="red" />
<path d="M164.18466152068743,2420.2029441610352 L159.66310158781482,2385.8582867049845" stroke="red" />
<path d="M159.66310158781482,2385.8582867049845 L211.87836792723655,2407.4865581856966" stroke="red" />
<path d="M211.87836792723655,2407.4865581856966 L198.13708498984755,2418.03061543301" stroke="red" />
<path d="M198.13708498984755,2418.03061543301 L246.42135623730945,2438.03061543301" stroke="red" />
<path d="M246.42135623730945,2438.03061543301 L-75.00000000000001,2438.03061543301" stroke="red" />
<path d="M25.0,2338.03061543301 L-24.999999999999993,2388.03061543301" stroke="red" />
<path d="M-24.999999999999993,2388.03061543301 L-29.482877360840256,2371.300289358254" stroke="red" />
<path d="M-29.482877360840256,2371.300289358254 L-56.730326074756135,2398.54773807217" stroke="red" />
<path d="M-56.730326074756135,2398.54773807217 L-23.269673925243826,2407.51349279385" stroke="red" />
<path d="M-23.269673925243826,2407.51349279385 L-50.51712263915971,2434.7609415077663" stroke="red" />
<path d="M-50.51712263915971,2434.7609415077663 L-54.99999999999997,2418.03061543301" stroke="red" />
<path d="M-54.99999999999997,2418.03061543301 L-74.99999999999997,2438.03061543301" stroke="red" />
<path d="M246.4213562373095,2538.03061543301 L125.71067811865476,2488.03061543301" stroke="red" />
<path d="M125.71067811865476,2488.03061543301 L139.45196105604367,2477.4865581856966" stroke="red" />
<path d="M139.45196105604396,2477.4865581856966 L87.23669471662191,2455.8582867049845" stroke="red" />
<path d="M87.2366947166222,2455.8582867049845 L91.75825464949469,2490.2029441610352" stroke="red" />
<path d="M91.75825464949469,2490.2029441610352 L39.54298831007293,2468.5746726803236" stroke="red" />
<path d="M39.54298831007293,2468.5746726803236 L53.284271247461845,2458.03061543301" stroke="red" />
<path d="M53.28427124746199,2458.03061543301 L5.0,2438.03061543301" stroke="red" />
<path d="M5.000000000000142,2438.03061543301 L459.558441227157,2438.03061543301" stroke="red" />
<path d="M218.13708498984766,2538.03061543301 L338.84776310850214,2488.03061543301" stroke="red" />
<path d="M338.8477631085024,2488.03061543301 L336.5869831420659,2505.2029441610352" stroke="red" />
<path d="M336.5869831420662,2505.2029441610352 L388.8022494814875,2483.5746726803236" stroke="red" />
<path d="M388.8022494814878,2483.5746726803236 L361.31968360670953,2462.4865581856966" stroke="red" />
<path d="M361.3196836067098,2462.4865581856966 L413.5349499461313,2440.8582867049845" stroke="red" />
<path d="M413.5349499461316,2440.8582867049845 L411.2741699796949,2458.03061543301" stroke="red" />
<path d="M411.2741699796952,2458.03061543301 L459.5584412271569,2438.03061543301" stroke="red" />
<path d="M5,2538.03061543301 L125.71067811865473,2588.03061543301" stroke="red" />
<path d="M125.71067811865473,2588.03061543301 L111.96939518126571,2598.5746726803236" stroke="red" />
<path d="M111.96939518126571,2598.5746726803236 L164.18466152068743,2620.2029441610352" stroke="red" />
<path d="M164.18466152068743,2620.2029441610352 L159.66310158781482,2585.8582867049845" stroke="red" />
<path d="M159.66310158781482,2585.8582867049845 L211.87836792723655,2607.4865581856966" stroke="red" />
<path d="M211.87836792723655,2607.4865581856966 L198.13708498984755,2618.03061543301" stroke="red" />
<path d="M198.13708498984755,2618.03061543301 L246.42135623730945,2638.03061543301" stroke="red" />
<path d="M246.42135623730945,2638.03061543301 L-208.13708498984752,2638.03061543301" stroke="red" />
<path d="M33.2842712474619,2538.03061543301 L-87.4264068711928,2588.03061543301" stroke="red" />
<path d="M-87.4264068711928,2588.03061543301 L-85.1656269047565,2570.8582867049845" stroke="red" />
<path d="M-85.1656269047565,2570.8582867049845 L-137.3808932441782,2592.4865581856966" stroke="red" />
<path d="M-137.3808932441782,2592.4865581856966 L-109.89832736940019,2613.5746726803236" stroke="red" />
<path d="M-109.89832736940019,2613.5746726803236 L-162.11359370882192,2635.2029441610352" stroke="red" />
<path d="M-162.11359370882192,2635.2029441610352 L-159.8528137423856,2618.03061543301" stroke="red" />
<path d="M-159.8528137423856,2618.03061543301 L-208.1370849898475,2638.03061543301" stroke="red" />
<path d="M246.4213562373095,2738.03061543301 L125.71067811865476,2688.03061543301" stroke="red" />
<path d="M125.71067811865476,2688.03061543301 L139.45196105604367,2677.4865581856966" stroke="red" />
<path d="M139.45196105604396,2677.4865581856966 L87.23669471662191,2655.8582867049845" stroke="red" />
<path d="M87.2366947166222,2655.8582867049845 L91.75825464949469,2690.2029441610352" stroke="red" />
<path d="M91.75825464949469,2690.2029441610352 L39.54298831007293,2668.5746726803236" stroke="red" />
<path d="M39.54298831007293,2668.5746726803236 L53.284271247461845,2658.03061543301" stroke="red" />
<path d="M53.28427124746199,2658.03061543301 L5.0,2638.03061543301" stroke="red" />
<path d="M5.000000000000142,2638.03061543301 L459.558441227157,2638.03061543301" stroke="red" />
<path d="M218.13708498984766,2738.03061543301 L338.84776310850214,2688.03061543301" stroke="red" />
<path d="M338.8477631085024,2688.03061543301 L336.5869831420659,2705.2029441610352" stroke="red" />
<path d="M336.5869831420662,2705.2029441610352 L388.8022494814875,2683.5746726803236" stroke="red" />
<path d="M388.8022494814878,2683.5746726803236 L361.31968360670953,2662.4865581856966" stroke="red" />
<path d="M361.3196836067098,2662.4865581856966 L413.5349499461313,2640.8582867049845" stroke="red" />
<path d="M413.5349499461316,2640.8582867049845 L411.2741699796949,2658.03061543301" stroke="red" />
<path d="M411.2741699796952,2658.03061543301 L459.5584412271569,2638.03061543301" stroke="red" />
<path d="M5,2738.03061543301 L125.71067811865473,2788.03061543301" stroke="red" />
<path d="M125.71067811865473,2788.03061543301 L111.96939518126571,2798.5746726803236" stroke="red" />
<path d="M111.96939518126571,2798.5746726803236 L164.18466152068743,2820.2029441610352" stroke="red" />
<path d="M164.18466152068743,2820.2029441610352 L159.66310158781482,2785.8582867049845" stroke="red" />
<path d="M159.66310158781482,2785.8582867049845 L211.87836792723655,2807.4865581856966" stroke="red" />
<path d="M211.87836792723655,2807.4865581856966 L198.13708498984755,2818.03061543301" stroke="red" />
<path d="M198.13708498984755,2818.03061543301 L246.42135623730945,2838.03061543301" stroke="red" />
<path d="M246.42135623730945,2838.03061543301 L-208.13708498984752,2838.03061543301" stroke="red" />
<path d="M33.2842712474619,2738.03061543301 L-87.4264068711928,2788.03061543301" stroke="red" />
<path d="M-87.4264068711928,2788.03061543301 L-85.1656269047565,2770.8582867049845" stroke="red" />
<path d="M-85.1656269047565,2770.8582867049845 L-137.3808932441782,2792.4865581856966" stroke="red" />
<path d="M-137.3808932441782,2792.4865581856966 L-109.89832736940019,2813.5746726803236" stroke="red" />
<path d="M-109.89832736940019,2813.5746726803236 L-162.11359370882192,2835.2029441610352" stroke="red" />
<path d="M-162.11359370882192,2835.2029441610352 L-159.8528137423856,2818.03061543301" stroke="red" />
<path d="M-159.8528137423856,2818.03061543301 L-208.1370849898475,2838.03061543301" stroke="red" />
<path d="M246.4213562373095,2938.03061543301 L125.71067811865476,2888.03061543301" stroke="red" />
<path d="M125.71067811865476,2888.03061543301 L139.45196105604367,2877.4865581856966" stroke="red" />
<path d="M139.45196105604396,2877.4865581856966 L87.23669471662191,2855.8582867049845" stroke="red" />
<path d="M87.2366947166222,2855.8582867049845 L91.75825464949469,2890.2029441610352" stroke="red" />
<path d="M91.75825464949469,2890.2029441610352 L39.54298831007293,2868.5746726803236" stroke="red" />
<path d="M39.54298831007293,2868.5746726803236 L53.284271247461845,2858.03061543301" stroke="red" />
<path d="M53.28427124746199,2858.03061543301 L5.0,2838.03061543301" stroke="red" />
<path d="M5.000000000000142,2838.03061543301 L459.558441227157,2838.03061543301" stroke="red" />
<path d="M218.13708498984766,2938.03061543301 L338.84776310850214,2888.03061543301" stroke="red" />
<path d="M338.8477631085024,2888.03061543301 L336.5869831420659,2905.2029441610352" stroke="red" />
<path d="M336.5869831420662,2905.2029441610352 L388.8022494814875,2883.5746726803236" stroke="red" />
<path d="M388.8022494814878,2883.5746726803236 L361.31968360670953,2862.4865581856966" stroke="red" />
<path d="M361.3196836067098,2862.4865581856966 L413.5349499461313,2840.8582867049845" stroke="red" />
<path d="M413.5349499461316,2840.8582867049845 L411.2741699796949,2858.03061543301" stroke="red" />
<path d="M411.2741699796952,2858.03061543301 L459.5584412271569,2838.03061543301" stroke="red" />
<path d="M5,2938.03061543301 L125.71067811865473,2988.03061543301" stroke="red" />
<path d="M125.71067811865473,2988.03061543301 L111.96939518126571,2998.5746726803236" stroke="red" />
<path d="M111.96939518126571,2998.5746726803236 L164.18466152068743,3020.2029441610352" stroke="red" />
<path d="M164.18466152068743,3020.2029441610352 L159.66310158781482,2985.8582867049845" stroke="red" />
<path d="M159.66310158781482,2985.8582867049845 L211.87836792723655,3007.4865581856966" stroke="red" />
<path d="M211.87836792723655,3007.4865581856966 L198.13708498984755,3018.03061543301" stroke="red" />
<path d="M198.13708498984755,3018.03061543301 L246.42135623730945,3038.03061543301" stroke="red" />
<path d="M246.42135623730945,3038.03061543301 L-208.13708498984752,3038.03061543301" stroke="red" />
<path d="M33.2842712474619,2938.03061543301 L-87.4264068711928,2988.03061543301" stroke="red" />
<path d="M-87.4264068711928,2988.03061543301 L-85.1656269047565,2970.8582867049845" stroke="red" />
<path d="M-85.1656269047565,2970.8582867049845 L-137.3808932441782,2992.4865581856966" stroke="red" />
<path d="M-137.3808932441782,2992.4865581856966 L-109.89832736940019,3013.5746726803236" stroke="red" />
<path d="M-109.89832736940019,3013.5746726803236 L-162.11359370882192,3035.2029441610352" stroke="red" />
<path d="M-162.11359370882192,3035.2029441610352 L-159.8528137423856,3018.03061543301" stroke="red" />
<path d="M-159.8528137423856,3018.03061543301 L-208.1370849898475,3038.03061543301" stroke="red" />
<path d="M246.4213562373095,3138.03061543301 L125.71067811865476,3088.03061543301" stroke="red" />
<path d="M125.71067811865476,3088.03061543301 L139.45196105604367,3077.4865581856966" stroke="red" />
<path d="M139.45196105604396,3077.4865581856966 L87.23669471662191,3055.8582867049845" stroke="red" />
<path d="M87.2366947166222,3055.8582867049845 L91.75825464949469,3090.2029441610352" stroke="red" />
<path d="M91.75825464949469,3090.2029441610352 L39.54298831007293,3068.5746726803236" stroke="red" />
<path d="M39.54298831007293,3068.5746726803236 L53.284271247461845,3058.03061543301" stroke="red" />
<path d="M53.28427124746199,3058.03061543301 L5.0,3038.03061543301" stroke="red" />
<path d="M5.000000000000142,3038.03061543301 L459.558441227157,3038.03061543301" stroke="red" />
<path d="M218.13708498984766,3138.03061543301 L338.84776310850214,3088.03061543301" stroke="red" />
<path d="M338.8477631085024,3088.03061543301 L336.5869831420659,3105.2029441610352" stroke="red" />
<path d="M336.5869831420662,3105.2029441610352 L388.8022494814875,3083.5746726803236" stroke="red" />
<path d="M388.8022494814878,3083.5746726803236 L361.31968360670953,3062.4865581856966" stroke="red" />
<path d="M361.3196836067098,3062.4865581856966 L413.5349499461313,3040.8582867049845" stroke="red" />
<path d="M413.5349499461316,3040.8582867049845 L411.2741699796949,3058.03061543301" stroke="red" />
<path d="M411.2741699796952,3058.03061543301 L459.5584412271569,3038.03061543301" stroke="red" />
<path d="M5,3138.03061543301 L125.71067811865473,3188.03061543301" stroke="red" />
<path d="M125.71067811865473,3188.03061543301 L111.96939518126571,3198.5746726803236" stroke="red" />
<path d="M111.96939518126571,3198.5746726803236 L164.18466152068743,3220.2029441610352" stroke="red" />
<path d="M164.18466152068743,3220.2029441610352 L159.66310158781482,3185.8582867049845" stroke="red" />
<path d="M159.66310158781482,3185.8582867049845 L211.87836792723655,3207.4865581856966" stroke="red" />
<path d="M211.87836792723655,3207.4865581856966 L198.13708498984755,3218.03061543301" stroke="red" />
<path d="M198.13708498984755,3218.03061543301 L246.42135623730945,3238.03061543301" stroke="red" />
<path d="M246.42135623730945,3238.03061543301 L-208.13708498984752,3238.03061543301" stroke="red" />
<path d="M33.2842712474619,3138.03061543301 L-87.4264068711928,3188.03061543301" stroke="red" />
<path d="M-87.4264068711928,3188.03061543301 L-85.1656269047565,3170.8582867049845" stroke="red" />
<path d="M-85.1656269047565,3170.8582867049845 L-137.3808932441782,3192.4865581856966" stroke="red" />
<path d="M-137.3808932441782,3192.4865581856966 L-109.89832736940019,3213.5746726803236" stroke="red" />
<path d="M-109.89832736940019,3213.5746726803236 L-162.11359370882192,3235.2029441610352" stroke="red" />
<path d="M-162.11359370882192,3235.2029441610352 L-159.8528137423856,3218.03061543301" stroke="red" />
<path d="M-159.8528137423856,3218.03061543301 L-208.1370849898475,3238.03061543301" stroke="red" />
<path d="M246.4213562373095,3338.03061543301 L125.71067811865476,3288.03061543301" stroke="red" />
<path d="M125.71067811865476,3288.03061543301 L139.45196105604367,3277.4865581856966" stroke="red" />
<path d="M139.45196105604396,3277.4865581856966 L87.23669471662191,3255.8582867049845" stroke="red" />
<path d="M87.2366947166222,3255.8582867049845 L91.75825464949469,3290.2029441610352" stroke="red" />
<path d="M91.75825464949469,3290.2029441610352 L39.54298831007293,3268.5746726803236" stroke="red" />
<path d="M39.54298831007293,3268.5746726803236 L53.284271247461845,3258.03061543301" stroke="red" />
<path d="M53.28427124746199,3258.03061543301 L5.0,3238.03061543301" stroke="red" />
<path d="M5.000000000000142,3238.03061543301 L459.558441227157,3238.03061543301" stroke="red" />
<path d="M218.13708498984766,3338.03061543301 L338.84776310850214,3288.03061543301" stroke="red" />
<path d="M338.8477631085024,3288.03061543301 L336.5869831420659,3305.2029441610352" stroke="red" />
<path d="M336.5869831420662,3305.2029441610352 L388.8022494814875,3283.5746726803236" stroke="red" />
<path d="M388.8022494814878,3283.5746726803236 L361.31968360670953,3262.4865581856966" stroke="red" />
<path d="M361.3196836067098,3262.4865581856966 L413.5349499461313,3240.8582867049845" stroke="red" />
<path d="M413.5349499461316,3240.8582867049845 L411.2741699796949,3258.03061543301" stroke="red" />
<path d="M411.2741699796952,3258.03061543301 L459.5584412271569,3238.03061543301" stroke="red" />
<path d="M5,3338.03061543301 L125.71067811865473,3388.03061543301" stroke="red" />
<path d="M125.71067811865473,3388.03061543301 L111.96939518126571,3398.5746726803236" stroke="red" />
<path d="M111.96939518126571,3398.5746726803236 L164.18466152068743,3420.2029441610352" stroke="red" />
<path d="M164.18466152068743,3420.2029441610352 L159.66310158781482,3385.8582867049845" stroke="red" />
<path d="M159.66310158781482,3385.8582867049845 L211.87836792723655,3407.4865581856966" stroke="red" />
<path d="M211.87836792723655,3407.4865581856966 L198.13708498984755,3418.03061543301" stroke="red" />
<path d="M198.13708498984755,3418.03061543301 L246.42135623730945,3438.03061543301" stroke="red" />
<path d="M246.42135623730945,3438.03061543301 L-208.13708498984752,3438.03061543301" stroke="red" />
<path d="M33.2842712474619,3338.03061543301 L-87.4264068711928,3388.03061543301" stroke="red" />
<path d="M-87.4264068711928,3388.03061543301 L-85.1656269047565,3370.8582867049845" stroke="red" />
<path d="M-85.1656269047565,3370.8582867049845 L-137.3808932441782,3392.4865581856966" stroke="red" />
<path d="M-137.3808932441782,3392.4865581856966 L-109.89832736940019,3413.5746726803236" stroke="red" />
<path d="M-109.89832736940019,3413.5746726803236 L-162.11359370882192,3435.2029441610352" stroke="red" />
<path d="M-162.11359370882192,3435.2029441610352 L-159.8528137423856,3418.03061543301" stroke="red" />
<path d="M-159.8528137423856,3418.03061543301 L-208.1370849898475,3438.03061543301" stroke="red" />
<path d="M246.4213562373095,3538.03061543301 L125.71067811865476,3488.03061543301" stroke="red" />
<path d="M125.71067811865476,3488.03061543301 L139.45196105604367,3477.4865581856966" stroke="red" />
<path d="M139.45196105604396,3477.4865581856966 L87.23669471662191,3455.8582867049845" stroke="red" />
<path d="M87.2366947166222,3455.8582867049845 L91.75825464949469,3490.2029441610352" stroke="red" />
<path d="M91.75825464949469,3490.2029441610352 L39.54298831007293,3468.5746726803236" stroke="red" />
<path d="M39.54298831007293,3468.5746726803236 L53.284271247461845,3458.03061543301" stroke="red" />
<path d="M53.28427124746199,3458.03061543301 L5.0,3438.03061543301" stroke="red" />
<path d="M5.000000000000142,3438.03061543301 L459.558441227157,3438.03061543301" stroke="red" />
<path d="M218.13708498984766,3538.03061543301 L338.84776310850214,3488.03061543301" stroke="red" />
<path d="M338.8477631085024,3488.03061543301 L336.5869831420659,3505.2029441610352" stroke="red" />
<path d="M336.5869831420662,3505.2029441610352 L388.8022494814875,3483.5746726803236" stroke="red" />
<path d="M388.8022494814878,3483.5746726803236 L361.31968360670953,3462.4865581856966" stroke="red" />
<path d="M361.3196836067098,3462.4865581856966 L413.5349499461313,3440.8582867049845" stroke="red" />
<path d="M413.5349499461316,3440.8582867049845 L411.2741699796949,3458.03061543301" stroke="red" />
<path d="M411.2741699796952,3458.03061543301 L459.5584412271569,3438.03061543301" stroke="red" />
<path d="M5,3538.03061543301 L125.71067811865473,3588.03061543301" stroke="red" />
<path d="M125.71067811865473,3588.03061543301 L111.96939518126571,3598.5746726803236" stroke="red" />
<path d="M111.96939518126571,3598.5746726803236 L164.18466152068743,3620.2029441610352" stroke="red" />
<path d="M164.18466152068743,3620.2029441610352 L159.66310158781482,3585.8582867049845" stroke="red" />
<path d="M159.66310158781482,3585.8582867049845 L211.87836792723655,3607.4865581856966" stroke="red" />
<path d="M211.87836792723655,3607.4865581856966 L198.13708498984755,3618.03061543301" stroke="red" />
<path d="M198.13708498984755,3618.03061543301 L246.42135623730945,3638.03061543301" stroke="red" />
<path d="M246.42135623730945,3638.03061543301 L-208.13708498984752,3638.03061543301" stroke="red" />
<path d="M33.2842712474619,3538.03061543301 L-87.4264068711928,3588.03061543301" stroke="red" />
<path d="M-87.4264068711928,3588.03061543301 L-85.1656269047565,3570.8582867049845" stroke="red" />
<path d="M-85.1656269047565,3570.8582867049845 L-137.3808932441782,3592.4865581856966" stroke="red" />
<path d="M-137.3808932441782,3592.4865581856966 L-109.89832736940019,3613.5746726803236" stroke="red" />
<path d="M-109.89832736940019,3613.5746726803236 L-162.11359370882192,3635.2029441610352" stroke="red" />
<path d="M-162.11359370882192,3635.2029441610352 L-159.8528137423856,3618.03061543301" stroke="red" />
<path d="M-159.8528137423856,3618.03061543301 L-208.1370849898475,3638.03061543301" stroke="red" />
</svg>