<?xml version="1.0" encoding="UTF-8"?>
<svg xmlns="http://www.w3.org/2000/svg" xmlns:xlink="http://www.w3.org/1999/xlink"
     width="1500" height="2000" viewBox="0 0 1500 2000">
<defs>
</defs>
<path d="M5,25 L91.60254037844385,75.0" stroke="red" />
<path d="M91.60254037844385,75.0 L76.60254037844385,83.66025403784438" stroke="red" />
<path d="M76.60254037844385,83.66025403784438 L117.58330249197701,107.32050807568876" stroke="red" />
<path d="M117.58330249197701,107.32050807568876 L117.58330249197701,72.67949192431122" stroke="red" />
<path d="M117.58330249197701,72.67949192431122 L158.56406460551017,96.3397459621556" stroke="red" />
<path d="M158.56406460551017,96.3397459621556 L143.56406460551017,105.0" stroke="red" />
<path d="M143.56406460551017,105.0 L178.2050807568877,125.0" stroke="red" />
<path d="M178.2050807568877,125 L538.9017004296599,125" stroke="red" />
<path d="M712.1067811865476,25 L625.5042408081036,75.0" stroke="red" />
<path d="M625.5042408081036,75.0 L625.5042408081036,57.679491924311236" stroke="red" />
<path d="M625.5042408081036,57.679491924311236 L584.5234786945705,81.33974596215562" stroke="red" />
<path d="M584.5234786945705,81.33974596215562 L614.5234786945705,98.6602540378444" stroke="red" />
<path d="M614.5234786945705,98.6602540378444 L573.5427165810373,122.32050807568879" stroke="red" />
<path d="M573.5427165810373,122.32050807568879 L573.5427165810373,105.00000000000001" stroke="red" />
<path d="M573.5427165810373,105.00000000000001 L538.9017004296597,125.00000000000001" stroke="red" />
<path d="M5,38.176156917368246 L55.50762722761054,38.176156917368246" stroke="red" />
<path d="M55.50762722761054,38.176156917368246 L55.50762722761054,14.39339828220179" stroke="red" />
<path d="M55.50762722761054,14.39339828220179 L106.01525445522108,14.39339828220179" stroke="red" />
<path d="M106.01525445522108,14.39339828220179 L106.01525445522108,38.176156917368246" stroke="red" />
<path d="M106.01525445522108,38.176156917368246 L156.52288168283164,38.176156917368246" stroke="red" />
<path d="M156.52288168283164,38.176156917368246 L156.52288168283164,14.39339828220179" stroke="red" />
<path d="M156.52288168283164,14.39339828220179 L207.03050891044217,14.39339828220179" stroke="red" />
<path d="M207.03050891044217,14.39339828220179 L207.03050891044217,38.176156917368246" stroke="red" />
<path d="M207.03050891044217,38.176156917368246 L257.5381361380527,38.176156917368246" stroke="red" />
<path d="M257.5381361380527,38.176156917368246 L257.5381361380527,14.39339828220179" stroke="red" />
<path d="M257.5381361380527,14.39339828220179 L308.0457633656632,14.39339828220179" stroke="red" />
<path d="M308.0457633656632,14.39339828220179 L308.0457633656632,38.176156917368246" stroke="red" />
<path d="M308.0457633656632,38.176156917368246 L358.5533905932738,38.176156917368246" stroke="red" />
<path d="M358.5533905932738,38.176156917368246 L358.5533905932738,14.39339828220179" stroke="red" />
<path d="M358.5533905932738,14.39339828220179 L409.06101782088433,14.39339828220179" stroke="red" />
<path d="M409.06101782088433,14.39339828220179 L409.06101782088433,38.176156917368246" stroke="red" />
<path d="M409.06101782088433,38.176156917368246 L459.5686450484949,38.176156917368246" stroke="red" />
<path d="M459.5686450484949,38.176156917368246 L459.5686450484949,14.39339828220179" stroke="red" />
<path d="M459.5686450484949,14.39339828220179 L510.0762722761055,14.39339828220179" stroke="red" />
<path d="M510.0762722761055,14.39339828220179 L510.0762722761055,38.176156917368246" stroke="red" />
<path d="M510.0762722761055,38.176156917368246 L560.5838995037161,38.176156917368246" stroke="red" />
<path d="M560.5838995037161,38.176156917368246 L560.5838995037161,14.39339828220179" stroke="red" />
<path d="M560.5838995037161,14.39339828220179 L611.0915267313267,14.39339828220179" stroke="red" />
<path d="M611.0915267313267,14.39339828220179 L611.0915267313267,38.176156917368246" stroke="red" />
<path d="M611.0915267313267,38.176156917368246 L661.5991539589372,38.176156917368246" stroke="red" />
<path d="M661.5991539589372,38.176156917368246 L661.5991539589372,14.39339828220179" stroke="red" />
<path d="M661.5991539589372,14.39339828220179 L712.1067811865477,14.39339828220179" stroke="red" />
<path d="M712.1067811865477,14.39339828220179 L712.1067811865477,38.176156917368246" stroke="red" />
<path d="M5,145 L91.60254037844385,195.0" stroke="red" />
<path d="M91.60254037844385,195.0 L76.60254037844385,203.66025403784437" stroke="red" />
<path d="M76.60254037844385,203.66025403784437 L117.58330249197701,227.32050807568874" stroke="red" />
<path d="M117.58330249197701,227.32050807568874 L117.58330249197701,192.6794919243112" stroke="red" />
<path d="M117.58330249197701,192.6794919243112 L158.56406460551017,216.33974596215558" stroke="red" />
<path d="M158.56406460551017,216.33974596215558 L143.56406460551017,224.99999999999997" stroke="red" />
<path d="M143.56406460551017,224.99999999999997 L178.2050807568877,244.99999999999997" stroke="red" />
<path d="M178.2050807568877,245 L538.9017004296599,245" stroke="red" />
<path d="M712.1067811865476,145 L625.5042408081036,195.0" stroke="red" />
<path d="M625.5042408081036,195.0 L625.5042408081036,177.6794919243112" stroke="red" />
<path d="M625.5042408081036,177.6794919243112 L584.5234786945705,201.33974596215558" stroke="red" />
<path d="M584.5234786945705,201.33974596215558 L614.5234786945705,218.66025403784437" stroke="red" />
<path d="M614.5234786945705,218.66025403784437 L573.5427165810373,242.32050807568874" stroke="red" />
<path d="M573.5427165810373,242.32050807568874 L573.5427165810373,224.99999999999997" stroke="red" />
<path d="M573.5427165810373,224.99999999999997 L538.9017004296597,244.99999999999997" stroke="red" />
<path d="M5,158.17615691736825 L55.50762722761054,158.17615691736825" stroke="red" />
<path d="M55.50762722761054,158.17615691736825 L55.50762722761054,134.3933982822018" stroke="red" />
<path d="M55.50762722761054,134.3933982822018 L106.01525445522108,134.3933982822018" stroke="red" />
<path d="M106.01525445522108,134.3933982822018 L106.01525445522108,158.17615691736825" stroke="red" />
<path d="M106.01525445522108,158.17615691736825 L156.52288168283164,158.17615691736825" stroke="red" />
<path d="M156.52288168283164,158.17615691736825 L156.52288168283164,134.3933982822018" stroke="red" />
<path d="M156.52288168283164,134.3933982822018 L207.03050891044217,134.3933982822018" stroke="red" />
<path d="M207.03050891044217,134.3933982822018 L207.03050891044217,158.17615691736825" stroke="red" />
<path d="M207.03050891044217,158.17615691736825 L257.5381361380527,158.17615691736825" stroke="red" />
<path d="M257.5381361380527,158.17615691736825 L257.5381361380527,134.3933982822018" stroke="red" />
<path d="M257.5381361380527,134.3933982822018 L308.0457633656632,134.3933982822018" stroke="red" />
<path d="M308.0457633656632,134.3933982822018 L308.0457633656632,158.17615691736825" stroke="red" />
<path d="M308.0457633656632,158.17615691736825 L358.5533905932738,158.17615691736825" stroke="red" />
<path d="M358.5533905932738,158.17615691736825 L358.5533905932738,134.3933982822018" stroke="red" />
<path d="M358.5533905932738,134.3933982822018 L409.06101782088433,134.3933982822018" stroke="red" />
<path d="M409.06101782088433,134.3933982822018 L409.06101782088433,158.17615691736825" stroke="red" />
<path d="M409.06101782088433,158.17615691736825 L459.5686450484949,158.17615691736825" stroke="red" />
<path d="M459.5686450484949,158.17615691736825 L459.5686450484949,134.3933982822018" stroke="red" />
<path d="M459.5686450484949,134.3933982822018 L510.0762722761055,134.3933982822018" stroke="red" />
<path d="M510.0762722761055,134.3933982822018 L510.0762722761055,158.17615691736825" stroke="red" />
<path d="M510.0762722761055,158.17615691736825 L560.5838995037161,158.17615691736825" stroke="red" />
<path d="M560.5838995037161,158.17615691736825 L560.5838995037161,134.3933982822018" stroke="red" />
<path d="M560.5838995037161,134.3933982822018 L611.0915267313267,134.3933982822018" stroke="red" />
<path d="M611.0915267313267,134.3933982822018 L611.0915267313267,158.17615691736825" stroke="red" />
<path d="M611.0915267313267,158.17615691736825 L661.5991539589372,158.17615691736825" stroke="red" />
<path d="M661.5991539589372,158.17615691736825 L661.5991539589372,134.3933982822018" stroke="red" />
<path d="M661.5991539589372,134.3933982822018 L712.1067811865477,134.3933982822018" stroke="red" />
<path d="M712.1067811865477,134.3933982822018 L712.1067811865477,158.17615691736825" stroke="red" />
<path d="M5,265 L91.60254037844385,315.0" stroke="red" />
<path d="M91.60254037844385,315.0 L76.60254037844385,323.66025403784437" stroke="red" />
<path d="M76.60254037844385,323.66025403784437 L117.58330249197701,347.32050807568874" stroke="red" />
<path d="M117.58330249197701,347.32050807568874 L117.58330249197701,312.6794919243112" stroke="red" />
<path d="M117.58330249197701,312.6794919243112 L158.56406460551017,336.3397459621556" stroke="red" />
<path d="M158.56406460551017,336.3397459621556 L143.56406460551017,345.0" stroke="red" />
<path d="M143.56406460551017,345.0 L178.2050807568877,365.0" stroke="red" />
<path d="M178.2050807568877,365 L538.9017004296599,365" stroke="red" />
<path d="M712.1067811865476,265 L625.5042408081036,315.0" stroke="red" />
<path d="M625.5042408081036,315.0 L625.5042408081036,297.6794919243112" stroke="red" />
<path d="M625.5042408081036,297.6794919243112 L584.5234786945705,321.3397459621556" stroke="red" />
<path d="M584.5234786945705,321.3397459621556 L614.5234786945705,338.6602540378443" stroke="red" />
<path d="M614.5234786945705,338.6602540378443 L573.5427165810373,362.32050807568874" stroke="red" />
<path d="M573.5427165810373,362.32050807568874 L573.5427165810373,345.0" stroke="red" />
<path d="M573.5427165810373,345.0 L538.9017004296597,365.0" stroke="red" />
<path d="M5,278.17615691736825 L55.50762722761054,278.17615691736825" stroke="red" />
<path d="M55.50762722761054,278.17615691736825 L55.50762722761054,254.39339828220182" stroke="red" />
<path d="M55.50762722761054,254.39339828220182 L106.01525445522108,254.39339828220182" stroke="red" />
<path d="M106.01525445522108,254.39339828220182 L106.01525445522108,278.17615691736825" stroke="red" />
<path d="M106.01525445522108,278.17615691736825 L156.52288168283164,278.17615691736825" stroke="red" />
<path d="M156.52288168283164,278.17615691736825 L156.52288168283164,254.39339828220182" stroke="red" />
<path d="M156.52288168283164,254.39339828220182 L207.03050891044217,254.39339828220182" stroke="red" />
<path d="M207.03050891044217,254.39339828220182 L207.03050891044217,278.17615691736825" stroke="red" />
<path d="M207.03050891044217,278.17615691736825 L257.5381361380527,278.17615691736825" stroke="red" />
<path d="M257.5381361380527,278.17615691736825 L257.5381361380527,254.39339828220182" stroke="red" />
<path d="M257.5381361380527,254.39339828220182 L308.0457633656632,254.39339828220182" stroke="red" />
<path d="M308.0457633656632,254.39339828220182 L308.0457633656632,278.17615691736825" stroke="red" />
<path d="M308.0457633656632,278.17615691736825 L358.5533905932738,278.17615691736825" stroke="red" />
<path d="M358.5533905932738,278.17615691736825 L358.5533905932738,254.39339828220182" stroke="red" />
<path d="M358.5533905932738,254.39339828220182 L409.06101782088433,254.39339828220182" stroke="red" />
<path d="M409.06101782088433,254.39339828220182 L409.06101782088433,278.17615691736825" stroke="red" />
<path d="M409.06101782088433,278.17615691736825 L459.5686450484949,278.17615691736825" stroke="red" />
<path d="M459.5686450484949,278.17615691736825 L459.5686450484949,254.39339828220182" stroke="red" />
<path d="M459.5686450484949,254.39339828220182 L510.0762722761055,254.39339828220182" stroke="red" />
<path d="M510.0762722761055,254.39339828220182 L510.0762722761055,278.17615691736825" stroke="red" />
<path d="M510.0762722761055,278.17615691736825 L560.5838995037161,278.17615691736825" stroke="red" />
<path d="M560.5838995037161,278.17615691736825 L560.5838995037161,254.39339828220182" stroke="red" />
<path d="M560.5838995037161,254.39339828220182 L611.0915267313267,254.39339828220182" stroke="red" />
<path d="M611.0915267313267,254.39339828220182 L611.0915267313267,278.17615691736825" stroke="red" />
<path d="M611.0915267313267,278.17615691736825 L661.5991539589372,278.17615691736825" stroke="red" />
<path d="M661.5991539589372,278.17615691736825 L661.5991539589372,254.39339828220182" stroke="red" />
<path d="M661.5991539589372,254.39339828220182 L712.1067811865477,254.39339828220182" stroke="red" />
<path d="M712.1067811865477,254.39339828220182 L712.1067811865477,278.17615691736825" stroke="red" />
</svg>