<?xml version="1.0" encoding="UTF-8"?>
<svg xmlns="http://www.w3.org/2000/svg" xmlns:xlink="http://www.w3.org/1999/xlink"
     width="300" height="300" viewBox="-150.0 -150.0 300 300">
<defs>
</defs>
<path d="M3,3 L6,3" stroke="red" />
<path d="M6,3 L6,0" stroke="red" />
<path d="M6,0 L9,0" stroke="red" />
<path d="M9,0 L9,3" stroke="red" />
<path d="M9,3 L12,3" stroke="red" />
<path d="M12,3 L12,0" stroke="red" />
<path d="M12,0 L15,0" stroke="red" />
<path d="M15.0,3.0 L15.0,6.0" stroke="red" />
<path d="M15.0,6.0 L18.0,6.0" stroke="red" />
<path d="M18.0,6.0 L18.0,9.0" stroke="red" />
<path d="M18.0,9.0 L15.0,9.0" stroke="red" />
<path d="M15.0,9.0 L15.0,12.0" stroke="red" />
<path d="M15.0,12.0 L18.0,12.0" stroke="red" />
<path d="M18.0,12.0 L18.0,15.0" stroke="red" />
<path d="M15.0,15.0 L12.0,15.0" stroke="red" />
<path d="M12.0,15.0 L12.0,18.0" stroke="red" />
<path d="M12.0,18.0 L9.0,18.0" stroke="red" />
<path d="M9.0,18.0 L9.0,15.0" stroke="red" />
<path d="M9.0,15.0 L6.0,15.0" stroke="red" />
<path d="M6.0,15.0 L6.0,18.0" stroke="red" />
<path d="M6.0,18.0 L3.000000000000001,18.0" stroke="red" />
<path d="M3.0,15.0 L3.0,12.0" stroke="red" />
<path d="M3.0,12.0 L0.0,12.0" stroke="red" />
<path d="M0.0,12.0 L0.0,9.0" stroke="red" />
<path d="M0.0,9.0 L3.0,9.0" stroke="red" />
<path d="M3.0,9.0 L3.0,6.0" stroke="red" />
<path d="M3.0,6.0 L0.0,6.0" stroke="red" />
<path d="M0.0,6.0 L0.0,3.0000000000000018" stroke="red" />
<path d="M15.0,0.0 L18.0,0.0" stroke="red" />
<path d="M18.0,0.0 L18.0,3.0" stroke="red" />
<path d="M18.0,3.0 L15.0,3.0" stroke="red" />
<path d="M3.000000000000001,18.0 L1.7763568394002505e-15,18.0" stroke="red" />
<path d="M1.7763568394002505e-15,18.0 L0.0,15.0" stroke="red" />
<path d="M0.0,15.0 L3.000000000000001,15.0" stroke="red" />
<path d="M18.0,15.0 L15.0,15.0" stroke="red" />
<path d="M-1.7763568394002505e-15,3.0000000000000018 L2.999999999999999,3.000000000000001" stroke="red" />
<path d="M18,3 L21,3" stroke="red" />
<path d="M21,3 L21,0" stroke="red" />
<path d="M21,0 L24,0" stroke="red" />
<path d="M24,0 L24,3" stroke="red" />
<path d="M24,3 L27,3" stroke="red" />
<path d="M27,3 L27,0" stroke="red" />
<path d="M27,0 L30,0" stroke="red" />
<path d="M30.0,3.0 L30.0,6.0" stroke="red" />
<path d="M30.0,6.0 L33.0,6.0" stroke="red" />
<path d="M33.0,6.0 L33.0,9.0" stroke="red" />
<path d="M33.0,9.0 L30.0,9.0" stroke="red" />
<path d="M30.0,9.0 L30.0,12.0" stroke="red" />
<path d="M30.0,12.0 L33.0,12.0" stroke="red" />
<path d="M33.0,12.0 L33.0,15.0" stroke="red" />
<path d="M30.0,15.0 L27.0,15.0" stroke="red" />
<path d="M27.0,15.0 L27.0,18.0" stroke="red" />
<path d="M27.0,18.0 L24.0,18.0" stroke="red" />
<path d="M24.0,18.0 L24.0,15.0" stroke="red" />
<path d="M24.0,15.0 L21.0,15.0" stroke="red" />
<path d="M21.0,15.0 L21.0,18.0" stroke="red" />
<path d="M21.0,18.0 L18.0,18.0" stroke="red" />
<path d="M18.0,15.0 L18.0,12.0" stroke="red" />
<path d="M18.0,12.0 L15.0,12.0" stroke="red" />
<path d="M15.0,12.0 L15.0,9.0" stroke="red" />
<path d="M15.0,9.0 L18.0,9.0" stroke="red" />
<path d="M18.0,9.0 L18.0,6.0" stroke="red" />
<path d="M18.0,6.0 L15.0,6.0" stroke="red" />
<path d="M15.0,6.0 L15.0,3.0000000000000018" stroke="red" />
<path d="M30.0,0.0 L33.0,0.0" stroke="red" />
<path d="M33.0,0.0 L33.0,3.0" stroke="red" />
<path d="M33.0,3.0 L30.0,3.0" stroke="red" />
<path d="M18.0,18.0 L15.000000000000002,18.0" stroke="red" />
<path d="M15.000000000000002,18.0 L15.0,15.0" stroke="red" />
<path d="M15.0,15.0 L18.0,15.0" stroke="red" />
<path d="M33.0,15.0 L30.0,15.0" stroke="red" />
<path d="M14.999999999999998,3.0000000000000018 L18.0,3.000000000000001" stroke="red" />
<path d="M33,3 L36,3" stroke="red" />
<path d="M36,3 L36,0" stroke="red" />
<path d="M36,0 L39,0" stroke="red" />
<path d="M39,0 L39,3" stroke="red" />
<path d="M39,3 L42,3" stroke="red" />
<path d="M42,3 L42,0" stroke="red" />
<path d="M42,0 L45,0" stroke="red" />
<path d="M45.0,3.0 L45.0,6.0" stroke="red" />
<path d="M45.0,6.0 L48.0,6.0" stroke="red" />
<path d="M48.0,6.0 L48.0,9.0" stroke="red" />
<path d="M48.0,9.0 L45.0,9.0" stroke="red" />
<path d="M45.0,9.0 L45.0,12.0" stroke="red" />
<path d="M45.0,12.0 L48.0,12.0" stroke="red" />
<path d="M48.0,12.0 L48.0,15.0" stroke="red" />
<path d="M45.0,15.0 L42.0,15.0" stroke="red" />
<path d="M42.0,15.0 L42.0,18.0" stroke="red" />
<path d="M42.0,18.0 L39.0,18.0" stroke="red" />
<path d="M39.0,18.0 L39.0,15.0" stroke="red" />
<path d="M39.0,15.0 L36.0,15.0" stroke="red" />
<path d="M36.0,15.0 L36.0,18.0" stroke="red" />
<path d="M36.0,18.0 L33.0,18.0" stroke="red" />
<path d="M33.0,15.0 L33.0,12.0" stroke="red" />
<path d="M33.0,12.0 L30.0,12.0" stroke="red" />
<path d="M30.0,12.0 L30.0,9.0" stroke="red" />
<path d="M30.0,9.0 L33.0,9.0" stroke="red" />
<path d="M33.0,9.0 L33.0,6.0" stroke="red" />
<path d="M33.0,6.0 L30.0,6.0" stroke="red" />
<path d="M30.0,6.0 L30.0,3.0000000000000018" stroke="red" />
<path d="M45.0,0.0 L48.0,0.0" stroke="red" />
<path d="M48.0,0.0 L48.0,3.0" stroke="red" />
<path d="M48.0,3.0 L45.0,3.0" stroke="red" />
<path d="M33.0,18.0 L30.0,18.0" stroke="red" />
<path d="M30.0,18.0 L30.0,15.0" stroke="red" />
<path d="M30.0,15.0 L33.0,15.0" stroke="red" />
<path d="M48.0,15.0 L45.0,15.0" stroke="red" />
<path d="M30.0,3.0000000000000018 L33.0,3.000000000000001" stroke="red" />
<path d="M48,3 L51,3" stroke="red" />
<path d="M51,3 L51,0" stroke="red" />
<path d="M51,0 L54,0" stroke="red" />
<path d="M54,0 L54,3" stroke="red" />
<path d="M54,3 L57,3" stroke="red" />
<path d="M57,3 L57,0" stroke="red" />
<path d="M57,0 L60,0" stroke="red" />
<path d="M60.0,3.0 L60.0,6.0" stroke="red" />
<path d="M60.0,6.0 L63.0,6.0" stroke="red" />
<path d="M63.0,6.0 L63.0,9.0" stroke="red" />
<path d="M63.0,9.0 L60.0,9.0" stroke="red" />
<path d="M60.0,9.0 L60.0,12.0" stroke="red" />
<path d="M60.0,12.0 L63.0,12.0" stroke="red" />
<path d="M63.0,12.0 L63.0,15.0" stroke="red" />
<path d="M60.0,15.0 L57.0,15.0" stroke="red" />
<path d="M57.0,15.0 L57.0,18.0" stroke="red" />
<path d="M57.0,18.0 L54.0,18.0" stroke="red" />
<path d="M54.0,18.0 L54.0,15.0" stroke="red" />
<path d="M54.0,15.0 L51.0,15.0" stroke="red" />
<path d="M51.0,15.0 L51.0,18.0" stroke="red" />
<path d="M51.0,18.0 L48.0,18.0" stroke="red" />
<path d="M48.0,15.0 L48.0,12.0" stroke="red" />
<path d="M48.0,12.0 L45.0,12.0" stroke="red" />
<path d="M45.0,12.0 L45.0,9.0" stroke="red" />
<path d="M45.0,9.0 L48.0,9.0" stroke="red" />
<path d="M48.0,9.0 L48.0,6.0" stroke="red" />
<path d="M48.0,6.0 L45.0,6.0" stroke="red" />
<path d="M45.0,6.0 L45.0,3.0000000000000018" stroke="red" />
<path d="M60.0,0.0 L63.0,0.0" stroke="red" />
<path d="M63.0,0.0 L63.0,3.0" stroke="red" />
<path d="M63.0,3.0 L60.0,3.0" stroke="red" />
<path d="M48.0,18.0 L45.0,18.0" stroke="red" />
<path d="M45.0,18.0 L45.0,15.0" stroke="red" />
<path d="M45.0,15.0 L48.0,15.0" stroke="red" />
<path d="M63.0,15.0 L60.0,15.0" stroke="red" />
<path d="M45.0,3.0000000000000018 L48.0,3.000000000000001" stroke="red" />
<path d="M63,3 L66,3" stroke="red" />
<path d="M66,3 L66,0" stroke="red" />
<path d="M66,0 L69,0" stroke="red" />
<path d="M69,0 L69,3" stroke="red" />
<path d="M69,3 L72,3" stroke="red" />
<path d="M72,3 L72,0" stroke="red" />
<path d="M72,0 L75,0" stroke="red" />
<path d="M75.0,3.0 L75.0,6.0" stroke="red" />
<path d="M75.0,6.0 L78.0,6.0" stroke="red" />
<path d="M78.0,6.0 L78.0,9.0" stroke="red" />
<path d="M78.0,9.0 L75.0,9.0" stroke="red" />
<path d="M75.0,9.0 L75.0,12.0" stroke="red" />
<path d="M75.0,12.0 L78.0,12.0" stroke="red" />
<path d="M78.0,12.0 L78.0,15.0" stroke="red" />
<path d="M75.0,15.0 L72.0,15.0" stroke="red" />
<path d="M72.0,15.0 L72.0,18.0" stroke="red" />
<path d="M72.0,18.0 L69.0,18.0" stroke="red" />
<path d="M69.0,18.0 L69.0,15.0" stroke="red" />
<path d="M69.0,15.0 L66.0,15.0" stroke="red" />
<path d="M66.0,15.0 L66.0,18.0" stroke="red" />
<path d="M66.0,18.0 L63.0,18.0" stroke="red" />
<path d="M63.0,15.0 L63.0,12.0" stroke="red" />
<path d="M63.0,12.0 L60.0,12.0" stroke="red" />
<path d="M60.0,12.0 L60.0,9.0" stroke="red" />
<path d="M60.0,9.0 L63.0,9.0" stroke="red" />
<path d="M63.0,9.0 L63.0,6.0" stroke="red" />
<path d="M63.0,6.0 L60.0,6.0" stroke="red" />
<path d="M60.0,6.0 L60.0,3.0000000000000018" stroke="red" />
<path d="M75.0,0.0 L75.0,3.0" stroke="red" />
<path d="M78.0,15.0 L75.0,15.0" stroke="red" />
<path d="M63.0,18.0 L63.0,15.0" stroke="red" />
<path d="M60.0,3.0000000000000018 L63.0,3.000000000000001" stroke="red" />
<path d="M78,3 L81,3" stroke="red" />
<path d="M81,3 L81,0" stroke="red" />
<path d="M81,0 L84,0" stroke="red" />
<path d="M84,0 L84,3" stroke="red" />
<path d="M84,3 L87,3" stroke="red" />
<path d="M87,3 L87,0" stroke="red" />
<path d="M87,0 L90,0" stroke="red" />
<path d="M90.0,3.0 L90.0,6.0" stroke="red" />
<path d="M90.0,6.0 L93.0,6.0" stroke="red" />
<path d="M93.0,6.0 L93.0,9.0" stroke="red" />
<path d="M93.0,9.0 L90.0,9.0" stroke="red" />
<path d="M90.0,9.0 L90.0,12.0" stroke="red" />
<path d="M90.0,12.0 L93.0,12.0" stroke="red" />
<path d="M93.0,12.0 L93.0,15.0" stroke="red" />
<path d="M90.0,15.0 L87.0,15.0" stroke="red" />
<path d="M87.0,15.0 L87.0,18.0" stroke="red" />
<path d="M87.0,18.0 L84.0,18.0" stroke="red" />
<path d="M84.0,18.0 L84.0,15.0" stroke="red" />
<path d="M84.0,15.0 L81.0,15.0" stroke="red" />
<path d="M81.0,15.0 L81.0,18.0" stroke="red" />
<path d="M81.0,18.0 L78.0,18.0" stroke="red" />
<path d="M78.0,15.0 L78.0,12.0" stroke="red" />
<path d="M78.0,12.0 L75.0,12.0" stroke="red" />
<path d="M75.0,12.0 L75.0,9.0" stroke="red" />
<path d="M75.0,9.0 L78.0,9.0" stroke="red" />
<path d="M78.0,9.0 L78.0,6.0" stroke="red" />
<path d="M78.0,6.0 L75.0,6.0" stroke="red" />
<path d="M75.0,6.0 L75.0,3.0000000000000018" stroke="red" />
<path d="M90.0,0.0 L90.0,3.0" stroke="red" />
<path d="M93.0,15.0 L90.0,15.0" stroke="red" />
<path d="M78.0,18.0 L78.0,15.0" stroke="red" />
<path d="M75.0,3.0000000000000018 L78.0,3.000000000000001" stroke="red" />
</svg>