<?xml version="1.0" encoding="UTF-8"?>
<svg xmlns="http://www.w3.org/2000/svg" xmlns:xlink="http://www.w3.org/1999/xlink"
     width="1500" height="2000" viewBox="0 0 1500 2000">
<defs>
</defs>
<path d="M235.0,35.0 L264.0,35.0" stroke="red" />
<path d="M264.0,35.0 L264.0,5.0" stroke="red" />
<path d="M264.0,5.0 L295.0,5.0" stroke="red" />
<path d="M295.0,5.0 L295.0,35.0" stroke="red" />
<path d="M295.0,35.0 L324.0,35.0" stroke="red" />
<path d="M324.0,35.0 L324.0,5.0" stroke="red" />
<path d="M324.0,5.0 L355.0,5.0" stroke="red" />
<path d="M355.0,5.0 L355.0,35.0" stroke="red" />
<path d="M355.0,35.0 L384.0,35.0" stroke="red" />
<path d="M384.0,35.0 L384.0,5.0" stroke="red" />
<path d="M384.0,5.0 L415.0,5.0" stroke="red" />
<path d="M415.0,5.0 L415.0,35.0" stroke="red" />
<path d="M414.99980277315325,34.99985670630815 L423.9612956100267,62.58049567886759" stroke="red" />
<path d="M423.9612956100267,62.58049567886759 L452.49299109888125,53.30998584761916" stroke="red" />
<path d="M452.49299109888125,53.30998584761916 L462.0725179245046,82.79273785276894" stroke="red" />
<path d="M462.0725179245046,82.79273785276894 L433.54082243565006,92.06324768401737" stroke="red" />
<path d="M433.54082243565006,92.06324768401737 L442.50231527252356,119.64388665657681" stroke="red" />
<path d="M442.50231527252356,119.64388665657681 L471.0340107613781,110.37337682532838" stroke="red" />
<path d="M471.0340107613781,110.37337682532838 L480.6135375870015,139.85612883047816" stroke="red" />
<path d="M480.6135375870015,139.85612883047816 L452.0818420981469,149.1266386617266" stroke="red" />
<path d="M452.0818420981469,149.1266386617266 L461.0433349350204,176.70727763428602" stroke="red" />
<path d="M461.0433349350204,176.70727763428602 L489.575030423875,167.43676780303758" stroke="red" />
<path d="M489.575030423875,167.43676780303758 L499.15455724949834,196.91951980818737" stroke="red" />
<path d="M499.15455724949834,196.91951980818737 L470.6228617606438,206.1900296394358" stroke="red" />
<path d="M470.6229370945957,206.18979778537204 L447.1614442577223,223.2355701018537" stroke="red" />
<path d="M447.1614442577223,223.2355701018537 L464.79500182649645,247.50607993310214" stroke="red" />
<path d="M464.79500182649645,247.50607993310214 L439.7154750008731,265.7274227541688" stroke="red" />
<path d="M439.7154750008731,265.7274227541688 L422.081917432099,241.45691292292042" stroke="red" />
<path d="M422.081917432099,241.45691292292042 L398.6204245952254,258.5026852394021" stroke="red" />
<path d="M398.6204245952254,258.5026852394021 L416.25398216399964,282.7731950706505" stroke="red" />
<path d="M416.25398216399964,282.7731950706505 L391.1744553383762,300.99453789171724" stroke="red" />
<path d="M391.1744553383762,300.99453789171724 L373.5408977696021,276.7240280604688" stroke="red" />
<path d="M373.5408977696021,276.7240280604688 L350.0794049327286,293.7698003769505" stroke="red" />
<path d="M350.0794049327286,293.7698003769505 L367.7129625015028,318.0403102081989" stroke="red" />
<path d="M367.7129625015028,318.0403102081989 L342.63343567587935,336.26165302926563" stroke="red" />
<path d="M342.63343567587935,336.26165302926563 L324.99987810710525,311.9911431980172" stroke="red" />
<path d="M325.00012189289487,311.9911431980172 L301.53862905602136,294.9453708815355" stroke="red" />
<path d="M301.53862905602136,294.9453708815355 L283.90507148724714,319.2158807127839" stroke="red" />
<path d="M283.90507148724714,319.2158807127839 L258.8255446616238,300.99453789171724" stroke="red" />
<path d="M258.8255446616238,300.99453789171724 L276.45910223039795,276.7240280604688" stroke="red" />
<path d="M276.45910223039795,276.7240280604688 L252.9976093935245,259.6782557439871" stroke="red" />
<path d="M252.9976093935245,259.6782557439871 L235.36405182475028,283.94876557523554" stroke="red" />
<path d="M235.36405182475028,283.94876557523554 L210.28452499912692,265.72742275416886" stroke="red" />
<path d="M210.28452499912692,265.72742275416886 L227.91808256790114,241.45691292292042" stroke="red" />
<path d="M227.91808256790114,241.45691292292042 L204.45658973102766,224.41114060643872" stroke="red" />
<path d="M204.45658973102766,224.41114060643872 L186.82303216225347,248.68165043768715" stroke="red" />
<path d="M186.82303216225347,248.68165043768715 L161.74350533663005,230.4603076166205" stroke="red" />
<path d="M161.74350533663005,230.4603076166205 L179.37706290540427,206.18979778537206" stroke="red" />
<path d="M179.37713823935624,206.19002963943583 L188.33863107622966,178.60939066687638" stroke="red" />
<path d="M188.33863107622966,178.60939066687638 L159.8069355873751,169.338880835628" stroke="red" />
<path d="M159.8069355873751,169.338880835628 L169.38646241299847,139.85612883047818" stroke="red" />
<path d="M169.38646241299847,139.85612883047818 L197.91815790185308,149.12663866172662" stroke="red" />
<path d="M197.91815790185308,149.12663866172662 L206.87965073872653,121.54599968916716" stroke="red" />
<path d="M206.87965073872653,121.54599968916716 L178.34795524987192,112.27548985791876" stroke="red" />
<path d="M178.34795524987192,112.27548985791876 L187.92748207549528,82.79273785276898" stroke="red" />
<path d="M187.92748207549528,82.79273785276898 L216.4591775643499,92.0632476840174" stroke="red" />
<path d="M216.4591775643499,92.0632476840174 L225.42067040122336,64.48260871145794" stroke="red" />
<path d="M225.42067040122336,64.48260871145794 L196.88897491236875,55.21209888020954" stroke="red" />
<path d="M196.88897491236875,55.21209888020954 L206.4685017379921,25.729346875059758" stroke="red" />
<path d="M206.4685017379921,25.729346875059758 L235.00019722684672,34.99985670630817" stroke="red" />
<path d="M625.0,35.0 L654.0,35.0" stroke="red" />
<path d="M654.0,35.0 L654.0,5.0" stroke="red" />
<path d="M654.0,5.0 L685.0,5.0" stroke="red" />
<path d="M685.0,5.0 L685.0,35.0" stroke="red" />
<path d="M685.0,35.0 L714.0,35.0" stroke="red" />
<path d="M714.0,35.0 L714.0,5.0" stroke="red" />
<path d="M714.0,5.0 L745.0,5.0" stroke="red" />
<path d="M745.0,5.0 L745.0,35.0" stroke="red" />
<path d="M745.0,35.0 L774.0,35.0" stroke="red" />
<path d="M774.0,35.0 L774.0,5.0" stroke="red" />
<path d="M774.0,5.0 L805.0,5.0" stroke="red" />
<path d="M805.0,5.0 L805.0,35.0" stroke="red" />
<path d="M804.9998027731533,34.99985670630815 L813.9612956100267,62.58049567886759" stroke="red" />
<path d="M813.9612956100267,62.58049567886759 L842.4929910988812,53.30998584761916" stroke="red" />
<path d="M842.4929910988812,53.30998584761916 L852.0725179245046,82.79273785276894" stroke="red" />
<path d="M852.0725179245046,82.79273785276894 L823.54082243565,92.06324768401737" stroke="red" />
<path d="M823.54082243565,92.06324768401737 L832.5023152725236,119.64388665657681" stroke="red" />
<path d="M832.5023152725236,119.64388665657681 L861.0340107613781,110.37337682532838" stroke="red" />
<path d="M861.0340107613781,110.37337682532838 L870.6135375870015,139.85612883047816" stroke="red" />
<path d="M870.6135375870015,139.85612883047816 L842.0818420981469,149.1266386617266" stroke="red" />
<path d="M842.0818420981469,149.1266386617266 L851.0433349350204,176.70727763428602" stroke="red" />
<path d="M851.0433349350204,176.70727763428602 L879.575030423875,167.43676780303758" stroke="red" />
<path d="M879.575030423875,167.43676780303758 L889.1545572494983,196.91951980818737" stroke="red" />
<path d="M889.1545572494983,196.91951980818737 L860.6228617606438,206.1900296394358" stroke="red" />
<path d="M860.6229370945957,206.18979778537204 L837.1614442577222,223.2355701018537" stroke="red" />
<path d="M837.1614442577222,223.2355701018537 L854.7950018264964,247.50607993310214" stroke="red" />
<path d="M854.7950018264964,247.50607993310214 L829.7154750008731,265.7274227541688" stroke="red" />
<path d="M829.7154750008731,265.7274227541688 L812.081917432099,241.45691292292042" stroke="red" />
<path d="M812.081917432099,241.45691292292042 L788.6204245952254,258.5026852394021" stroke="red" />
<path d="M788.6204245952254,258.5026852394021 L806.2539821639996,282.7731950706505" stroke="red" />
<path d="M806.2539821639996,282.7731950706505 L781.1744553383762,300.99453789171724" stroke="red" />
<path d="M781.1744553383762,300.99453789171724 L763.5408977696021,276.7240280604688" stroke="red" />
<path d="M763.5408977696021,276.7240280604688 L740.0794049327285,293.7698003769505" stroke="red" />
<path d="M740.0794049327285,293.7698003769505 L757.7129625015027,318.0403102081989" stroke="red" />
<path d="M757.7129625015027,318.0403102081989 L732.6334356758794,336.26165302926563" stroke="red" />
<path d="M732.6334356758794,336.26165302926563 L714.9998781071052,311.9911431980172" stroke="red" />
<path d="M715.0001218928949,311.9911431980172 L691.5386290560214,294.9453708815355" stroke="red" />
<path d="M691.5386290560214,294.9453708815355 L673.9050714872471,319.2158807127839" stroke="red" />
<path d="M673.9050714872471,319.2158807127839 L648.8255446616238,300.99453789171724" stroke="red" />
<path d="M648.8255446616238,300.99453789171724 L666.4591022303979,276.7240280604688" stroke="red" />
<path d="M666.4591022303979,276.7240280604688 L642.9976093935245,259.6782557439871" stroke="red" />
<path d="M642.9976093935245,259.6782557439871 L625.3640518247503,283.94876557523554" stroke="red" />
<path d="M625.3640518247503,283.94876557523554 L600.2845249991269,265.72742275416886" stroke="red" />
<path d="M600.2845249991269,265.72742275416886 L617.9180825679011,241.45691292292042" stroke="red" />
<path d="M617.9180825679011,241.45691292292042 L594.4565897310276,224.41114060643872" stroke="red" />
<path d="M594.4565897310276,224.41114060643872 L576.8230321622535,248.68165043768715" stroke="red" />
<path d="M576.8230321622535,248.68165043768715 L551.74350533663,230.4603076166205" stroke="red" />
<path d="M551.74350533663,230.4603076166205 L569.3770629054043,206.18979778537206" stroke="red" />
<path d="M569.3771382393562,206.19002963943583 L578.3386310762297,178.60939066687638" stroke="red" />
<path d="M578.3386310762297,178.60939066687638 L549.8069355873752,169.338880835628" stroke="red" />
<path d="M549.8069355873752,169.338880835628 L559.3864624129985,139.85612883047818" stroke="red" />
<path d="M559.3864624129985,139.85612883047818 L587.9181579018531,149.12663866172662" stroke="red" />
<path d="M587.9181579018531,149.12663866172662 L596.8796507387266,121.54599968916716" stroke="red" />
<path d="M596.8796507387266,121.54599968916716 L568.3479552498719,112.27548985791876" stroke="red" />
<path d="M568.3479552498719,112.27548985791876 L577.9274820754953,82.79273785276898" stroke="red" />
<path d="M577.9274820754953,82.79273785276898 L606.45917756435,92.0632476840174" stroke="red" />
<path d="M606.45917756435,92.0632476840174 L615.4206704012233,64.48260871145794" stroke="red" />
<path d="M615.4206704012233,64.48260871145794 L586.8889749123687,55.21209888020954" stroke="red" />
<path d="M586.8889749123687,55.21209888020954 L596.468501737992,25.729346875059758" stroke="red" />
<path d="M596.468501737992,25.729346875059758 L625.0001972268467,34.99985670630817" stroke="red" />
<path d="M1015.0,35.0 L1044.0,35.0" stroke="red" />
<path d="M1044.0,35.0 L1044.0,5.0" stroke="red" />
<path d="M1044.0,5.0 L1075.0,5.0" stroke="red" />
<path d="M1075.0,5.0 L1075.0,35.0" stroke="red" />
<path d="M1075.0,35.0 L1104.0,35.0" stroke="red" />
<path d="M1104.0,35.0 L1104.0,5.0" stroke="red" />
<path d="M1104.0,5.0 L1135.0,5.0" stroke="red" />
<path d="M1135.0,5.0 L1135.0,35.0" stroke="red" />
<path d="M1135.0,35.0 L1164.0,35.0" stroke="red" />
<path d="M1164.0,35.0 L1164.0,5.0" stroke="red" />
<path d="M1164.0,5.0 L1195.0,5.0" stroke="red" />
<path d="M1195.0,5.0 L1195.0,35.0" stroke="red" />
<path d="M1194.9998027731533,34.99985670630815 L1203.9612956100266,62.58049567886759" stroke="red" />
<path d="M1203.9612956100266,62.58049567886759 L1232.4929910988812,53.30998584761916" stroke="red" />
<path d="M1232.4929910988812,53.30998584761916 L1242.0725179245046,82.79273785276894" stroke="red" />
<path d="M1242.0725179245046,82.79273785276894 L1213.54082243565,92.06324768401737" stroke="red" />
<path d="M1213.54082243565,92.06324768401737 L1222.5023152725234,119.64388665657681" stroke="red" />
<path d="M1222.5023152725234,119.64388665657681 L1251.034010761378,110.37337682532838" stroke="red" />
<path d="M1251.034010761378,110.37337682532838 L1260.6135375870015,139.85612883047816" stroke="red" />
<path d="M1260.6135375870015,139.85612883047816 L1232.0818420981468,149.1266386617266" stroke="red" />
<path d="M1232.0818420981468,149.1266386617266 L1241.0433349350203,176.70727763428602" stroke="red" />
<path d="M1241.0433349350203,176.70727763428602 L1269.575030423875,167.43676780303758" stroke="red" />
<path d="M1269.575030423875,167.43676780303758 L1279.1545572494983,196.91951980818737" stroke="red" />
<path d="M1279.1545572494983,196.91951980818737 L1250.6228617606437,206.1900296394358" stroke="red" />
<path d="M1250.6229370945957,206.18979778537204 L1227.1614442577222,223.2355701018537" stroke="red" />
<path d="M1227.1614442577222,223.2355701018537 L1244.7950018264964,247.50607993310214" stroke="red" />
<path d="M1244.7950018264964,247.50607993310214 L1219.715475000873,265.7274227541688" stroke="red" />
<path d="M1219.715475000873,265.7274227541688 L1202.0819174320989,241.45691292292042" stroke="red" />
<path d="M1202.0819174320989,241.45691292292042 L1178.6204245952254,258.5026852394021" stroke="red" />
<path d="M1178.6204245952254,258.5026852394021 L1196.2539821639996,282.7731950706505" stroke="red" />
<path d="M1196.2539821639996,282.7731950706505 L1171.1744553383762,300.99453789171724" stroke="red" />
<path d="M1171.1744553383762,300.99453789171724 L1153.540897769602,276.7240280604688" stroke="red" />
<path d="M1153.540897769602,276.7240280604688 L1130.0794049327285,293.7698003769505" stroke="red" />
<path d="M1130.0794049327285,293.7698003769505 L1147.7129625015027,318.0403102081989" stroke="red" />
<path d="M1147.7129625015027,318.0403102081989 L1122.6334356758794,336.26165302926563" stroke="red" />
<path d="M1122.6334356758794,336.26165302926563 L1104.9998781071051,311.9911431980172" stroke="red" />
<path d="M1105.0001218928949,311.9911431980172 L1081.5386290560214,294.9453708815355" stroke="red" />
<path d="M1081.5386290560214,294.9453708815355 L1063.9050714872471,319.2158807127839" stroke="red" />
<path d="M1063.9050714872471,319.2158807127839 L1038.8255446616238,300.99453789171724" stroke="red" />
<path d="M1038.8255446616238,300.99453789171724 L1056.459102230398,276.7240280604688" stroke="red" />
<path d="M1056.459102230398,276.7240280604688 L1032.9976093935245,259.6782557439871" stroke="red" />
<path d="M1032.9976093935245,259.6782557439871 L1015.3640518247503,283.94876557523554" stroke="red" />
<path d="M1015.3640518247503,283.94876557523554 L990.2845249991269,265.72742275416886" stroke="red" />
<path d="M990.2845249991269,265.72742275416886 L1007.9180825679011,241.45691292292042" stroke="red" />
<path d="M1007.9180825679011,241.45691292292042 L984.4565897310276,224.41114060643872" stroke="red" />
<path d="M984.4565897310276,224.41114060643872 L966.8230321622535,248.68165043768715" stroke="red" />
<path d="M966.8230321622535,248.68165043768715 L941.74350533663,230.4603076166205" stroke="red" />
<path d="M941.74350533663,230.4603076166205 L959.3770629054043,206.18979778537206" stroke="red" />
<path d="M959.3771382393562,206.19002963943583 L968.3386310762296,178.60939066687638" stroke="red" />
<path d="M968.3386310762296,178.60939066687638 L939.8069355873752,169.338880835628" stroke="red" />
<path d="M939.8069355873752,169.338880835628 L949.3864624129985,139.85612883047818" stroke="red" />
<path d="M949.3864624129985,139.85612883047818 L977.9181579018531,149.12663866172662" stroke="red" />
<path d="M977.9181579018531,149.12663866172662 L986.8796507387265,121.54599968916716" stroke="red" />
<path d="M986.8796507387265,121.54599968916716 L958.3479552498718,112.27548985791876" stroke="red" />
<path d="M958.3479552498718,112.27548985791876 L967.9274820754952,82.79273785276898" stroke="red" />
<path d="M967.9274820754952,82.79273785276898 L996.4591775643498,92.0632476840174" stroke="red" />
<path d="M996.4591775643498,92.0632476840174 L1005.4206704012233,64.48260871145794" stroke="red" />
<path d="M1005.4206704012233,64.48260871145794 L976.8889749123687,55.21209888020954" stroke="red" />
<path d="M976.8889749123687,55.21209888020954 L986.468501737992,25.729346875059758" stroke="red" />
<path d="M986.468501737992,25.729346875059758 L1015.0001972268467,34.99985670630817" stroke="red" />
</svg>