# Blender 4.2.2 LTS
# www.blender.org
mtllib bad_dragon.mtl
o Cube
v 1.370711 0.897362 -0.566606
v 0.879612 -0.216455 -0.623856
v 1.241807 0.844739 0.826941
v 0.937105 -0.647520 0.842132
v 0.000000 -0.295687 -2.227022
v 0.000000 0.811466 -2.168299
v 0.854971 -0.216449 -2.221342
v 1.384256 0.654637 -2.395138
v 0.000000 -0.384226 -0.673671
v 0.000000 1.276353 0.898074
v 0.000000 -1.000000 1.000000
v 0.000000 1.054026 -0.550499
v 0.000000 0.532879 -3.105335
v 0.000000 -0.328916 -2.958133
v 0.765068 -0.138735 -2.938740
v 1.136780 0.593108 -3.271271
v 1.203267 1.020388 -1.877764
v 1.239743 0.362730 -0.964648
v -1.370711 0.897362 -0.566606
v -0.879612 -0.216455 -0.623856
v -1.241807 0.844739 0.826941
v -0.937105 -0.647520 0.842132
v -0.854971 -0.216449 -2.221342
v -1.384256 0.654637 -2.395138
v -0.765068 -0.138735 -2.938740
v -1.136780 0.593108 -3.271271
v -1.203267 1.020388 -1.877764
v -1.239743 0.362730 -0.964648
vn 0.0087 0.9826 -0.1855
vn -0.0370 -0.2801 -0.9592
vn 0.2445 -0.9185 -0.3107
vn 0.9562 -0.2916 -0.0254
vn 0.1418 -0.9895 -0.0289
vn 0.1645 -0.9855 -0.0405
vn 0.8814 -0.4014 0.2492
vn 0.1053 0.0224 0.9942
vn 0.2179 0.9748 -0.0483
vn 0.8317 -0.5248 -0.1814
vn 0.1141 0.9904 0.0784
vn 0.8573 0.5112 -0.0615
vn -0.0022 0.8162 -0.5778
vn -0.1347 0.9799 -0.1469
vn 0.8457 -0.5335 -0.0130
vn 0.8526 -0.5221 -0.0204
vn 0.9626 -0.2676 0.0426
vn -0.0087 0.9826 -0.1855
vn 0.0370 -0.2801 -0.9592
vn -0.2445 -0.9185 -0.3107
vn -0.9562 -0.2916 -0.0254
vn -0.1418 -0.9895 -0.0289
vn -0.1645 -0.9855 -0.0405
vn -0.8814 -0.4014 0.2492
vn -0.1053 0.0224 0.9942
vn -0.2179 0.9748 -0.0483
vn -0.8317 -0.5248 -0.1814
vn -0.1141 0.9904 0.0784
vn -0.8573 0.5112 -0.0615
vn 0.0022 0.8162 -0.5778
vn 0.1347 0.9799 -0.1469
vn -0.8457 -0.5335 -0.0130
vn -0.8526 -0.5221 -0.0204
vn -0.9626 -0.2676 0.0426
vt 0.750000 0.500000
vt 0.625000 0.500000
vt 0.375000 0.375000
vt 0.625000 0.375000
vt 0.375000 0.500000
vt 0.250000 0.500000
vt 0.375000 0.750000
vt 0.250000 0.750000
vt 0.625000 0.750000
vt 0.502772 0.500000
vt 0.625000 0.875000
vt 0.375000 0.875000
vt 0.750000 0.750000
vt 0.685408 0.500000
s 0
usemtl Material
f 6/1/1 8/2/1 16/2/1 13/1/1
f 14/3/2 13/4/2 16/2/2 15/5/2
f 9/6/3 2/5/3 4/7/3 11/8/3
f 2/5/4 1/2/4 3/9/4 4/7/4
f 2/5/5 9/6/5 5/6/5 7/5/5
f 7/5/6 5/6/6 14/6/6 15/5/6
f 1/2/7 2/5/7 18/10/7
f 4/7/8 3/9/8 10/11/8 11/12/8
f 1/2/9 12/1/9 10/13/9 3/9/9
f 8/2/10 7/5/10 15/5/10 16/2/10
f 12/1/11 1/2/11 17/14/11
f 1/2/12 8/2/12 17/14/12
f 8/2/13 6/1/13 17/14/13
f 6/1/14 12/1/14 17/14/14
f 2/5/15 7/5/15 18/10/15
f 7/5/16 8/2/16 18/10/16
f 8/2/17 1/2/17 18/10/17
f 6/1/18 13/1/18 26/2/18 24/2/18
f 14/3/19 25/5/19 26/2/19 13/4/19
f 9/6/20 11/8/20 22/7/20 20/5/20
f 20/5/21 22/7/21 21/9/21 19/2/21
f 20/5/22 23/5/22 5/6/22 9/6/22
f 23/5/23 25/5/23 14/6/23 5/6/23
f 19/2/24 28/10/24 20/5/24
f 22/7/25 11/12/25 10/11/25 21/9/25
f 19/2/26 21/9/26 10/13/26 12/1/26
f 24/2/27 26/2/27 25/5/27 23/5/27
f 12/1/28 27/14/28 19/2/28
f 19/2/29 27/14/29 24/2/29
f 24/2/30 27/14/30 6/1/30
f 6/1/31 27/14/31 12/1/31
f 20/5/32 28/10/32 23/5/32
f 23/5/33 28/10/33 24/2/33
f 24/2/34 28/10/34 19/2/34
